<svg xmlns="http://www.w3.org/2000/svg" width="644" height="180" viewBox="0 0 644 180" version="1.1"><path d="M 60.951 18.045 C 39.357 21.287, 24.178 36.399, 17.898 60.910 C 15.092 71.865, 15.339 76.493, 18.923 80.077 C 21.379 82.533, 22.650 83, 26.876 83 C 35.971 83, 37.712 81.341, 40.486 70.025 C 41.360 66.463, 43.151 61.712, 44.466 59.467 C 49.641 50.637, 60.418 43.304, 71.655 40.969 C 74.760 40.324, 86.425 40.017, 100.993 40.199 L 125.176 40.500 127.588 43.306 C 130.924 47.187, 130.740 51.413, 127.077 55.077 L 124.154 58 104.713 58 L 85.273 58 82.636 60.636 C 80.274 62.999, 80.003 64.012, 80.032 70.386 C 80.089 83.096, 79.806 83, 117.011 83 L 147.154 83 150.077 80.077 L 153 77.154 153 50.593 L 153 24.032 150.083 20.766 L 147.166 17.500 106.833 17.356 C 84.650 17.277, 64.003 17.587, 60.951 18.045 M 66.317 48.405 C 60.648 53.502, 56.652 60.989, 55.094 69.434 C 53.683 77.086, 53.674 77, 55.878 77 C 58.574 77, 59.515 75.312, 60.777 68.204 C 62.159 60.426, 65.669 52.585, 69.955 47.704 C 74.409 42.631, 72.284 43.040, 66.317 48.405 M 205.768 44.725 C 207.565 44.947, 210.265 44.943, 211.768 44.715 C 213.271 44.486, 211.800 44.304, 208.500 44.310 C 205.200 44.315, 203.971 44.502, 205.768 44.725 M 58.020 50.980 C 52.019 56.826, 48.354 64.204, 47.177 72.815 C 46.447 78.151, 46.548 78.998, 47.916 78.985 C 50.965 78.955, 51.898 77.396, 53.001 70.492 C 54.334 62.147, 56.465 57.104, 61.341 50.750 C 66.082 44.573, 64.484 44.684, 58.020 50.980 M 191.689 50.250 C 188.575 53.334, 188.563 53.373, 191.454 51.008 C 193.129 49.637, 194.928 48.175, 195.450 47.758 C 195.972 47.341, 196.078 47, 195.685 47 C 195.292 47, 193.494 48.462, 191.689 50.250 M 223.980 50.279 L 226.403 53.058 223.290 56.171 L 220.177 59.284 217.454 57.142 C 215.956 55.964, 214.278 55, 213.726 55 C 213.173 55, 214.429 56.159, 216.517 57.576 L 220.314 60.153 223.887 56.579 L 227.461 53.006 224.509 50.253 L 221.556 47.500 223.980 50.279 M 433.272 53 C 433.272 55.475, 433.467 56.487, 433.706 55.250 C 433.944 54.013, 433.944 51.987, 433.706 50.750 C 433.467 49.513, 433.272 50.525, 433.272 53 M 48.580 56.659 C 43.253 63.881, 38.600 81, 41.965 81 C 43.517 81, 44.680 77.896, 45.338 72 C 45.696 68.786, 47.388 63.597, 49.409 59.517 C 51.310 55.676, 52.705 52.372, 52.509 52.176 C 52.312 51.979, 50.544 53.997, 48.580 56.659 M 243.250 56.716 C 244.762 56.945, 247.238 56.945, 248.750 56.716 C 250.262 56.487, 249.025 56.300, 246 56.300 C 242.975 56.300, 241.738 56.487, 243.250 56.716 M 308.750 56.706 C 309.988 56.944, 312.012 56.944, 313.250 56.706 C 314.488 56.467, 313.475 56.272, 311 56.272 C 308.525 56.272, 307.512 56.467, 308.750 56.706 M 346.250 56.716 C 347.762 56.945, 350.238 56.945, 351.750 56.716 C 353.262 56.487, 352.025 56.300, 349 56.300 C 345.975 56.300, 344.738 56.487, 346.250 56.716 M 406.250 56.716 C 407.762 56.945, 410.238 56.945, 411.750 56.716 C 413.262 56.487, 412.025 56.300, 409 56.300 C 405.975 56.300, 404.738 56.487, 406.250 56.716 M 471.264 56.718 C 472.784 56.947, 475.034 56.941, 476.264 56.704 C 477.494 56.467, 476.250 56.279, 473.500 56.286 C 470.750 56.294, 469.744 56.488, 471.264 56.718 M 269.225 74.250 L 269 92 274.500 92 L 280 92 280 80.200 C 280 72.174, 280.400 67.952, 281.250 66.998 C 282.313 65.806, 282.239 65.794, 280.750 66.921 C 279.263 68.046, 279 69.958, 279 79.622 L 279 91 274.524 91 L 270.047 91 269.748 73.750 L 269.450 56.500 269.225 74.250 M 293.432 81 C 293.432 94.475, 293.574 99.987, 293.747 93.250 C 293.920 86.513, 293.920 75.487, 293.747 68.750 C 293.574 62.013, 293.432 67.525, 293.432 81 M 371.225 74.250 L 371 92 376.500 92 L 382 92 381.786 80.250 L 381.572 68.500 381.253 79.750 L 380.934 91 376.491 91 L 372.047 91 371.748 73.750 L 371.450 56.500 371.225 74.250 M 426.398 61.500 C 426.497 66.373, 426.581 66.508, 429.713 66.811 L 432.927 67.121 433.256 76.311 L 433.585 85.500 433.792 75.750 L 434 66 430.555 66 C 427.168 66, 427.103 65.919, 426.703 61.250 L 426.296 56.500 426.398 61.500 M 453.168 61.198 L 453 65.895 447.750 66.263 L 442.500 66.630 447.781 66.815 C 453.758 67.024, 454.357 66.374, 453.735 60.355 C 453.352 56.652, 453.330 56.685, 453.168 61.198 M 334.104 62.535 C 332.397 64.479, 331.014 66.616, 331.030 67.285 C 331.047 67.953, 331.557 67.600, 332.164 66.500 C 332.771 65.400, 334.417 63.263, 335.821 61.750 C 337.225 60.237, 338.112 59, 337.791 59 C 337.470 59, 335.811 60.591, 334.104 62.535 M 261.094 63 C 263.991 67.490, 264.001 67.501, 263.995 66.417 C 263.992 65.912, 262.830 64.150, 261.412 62.500 L 258.835 59.500 261.094 63 M 470.083 65.362 C 470.313 65.562, 472.502 65.981, 474.948 66.294 C 477.826 66.662, 478.885 66.539, 477.948 65.947 C 476.612 65.101, 469.145 64.547, 470.083 65.362 M 304.200 67.200 C 303.529 67.871, 303 71.089, 303 74.500 C 303 80.313, 304.110 83.037, 306.450 82.970 C 307.028 82.953, 306.712 82.481, 305.750 81.920 C 304.379 81.121, 304 79.548, 304 74.650 C 304 71.122, 304.523 67.877, 305.200 67.200 C 305.860 66.540, 306.175 66, 305.900 66 C 305.625 66, 304.860 66.540, 304.200 67.200 M 412.598 67.396 C 413.061 68.600, 412.026 68.966, 407.337 69.258 L 401.500 69.622 407.750 69.811 C 412.613 69.958, 414 69.680, 414 68.559 C 414 67.766, 413.555 66.843, 413.011 66.507 C 412.452 66.161, 412.273 66.547, 412.598 67.396 M 423 78.445 L 423 90.890 418.250 91.265 L 413.500 91.640 418.750 91.820 L 424 92 424 79 C 424 71.850, 423.775 66, 423.500 66 C 423.225 66, 423 71.600, 423 78.445 M 467.200 67.200 C 464.927 69.473, 466.020 70, 473 70 C 476.850 70, 480.001 69.662, 480.002 69.250 C 480.003 68.838, 476.988 68.655, 473.301 68.844 C 467.260 69.154, 466.729 69.031, 467.922 67.594 C 469.467 65.732, 468.950 65.450, 467.200 67.200 M 327.300 74 C 327.300 77.025, 327.487 78.263, 327.716 76.750 C 327.945 75.237, 327.945 72.763, 327.716 71.250 C 327.487 69.737, 327.300 70.975, 327.300 74 M 330.310 74.500 C 330.315 77.800, 330.502 79.029, 330.725 77.232 C 330.947 75.435, 330.943 72.735, 330.715 71.232 C 330.486 69.729, 330.304 71.200, 330.310 74.500 M 367.300 74 C 367.300 77.025, 367.487 78.263, 367.716 76.750 C 367.945 75.237, 367.945 72.763, 367.716 71.250 C 367.487 69.737, 367.300 70.975, 367.300 74 M 317 74.277 C 317 76.080, 316.289 78.668, 315.420 80.027 L 313.840 82.500 315.920 80.139 C 317.743 78.070, 318.965 71, 317.500 71 C 317.225 71, 317 72.475, 317 74.277 M 219.923 77.689 C 218.656 79.302, 218.673 79.365, 220.080 78.268 C 221.396 77.243, 222.140 77.537, 224.518 80.018 L 227.374 83 224.460 86.250 L 221.546 89.500 225.005 86.249 L 228.464 82.997 224.905 79.438 C 221.547 76.080, 221.265 75.981, 219.923 77.689 M 251.814 80.219 C 250.336 81.749, 249.470 83, 249.889 83 C 250.838 83, 255.497 78.114, 254.921 77.723 C 254.689 77.566, 253.291 78.689, 251.814 80.219 M 406.762 77.707 C 408.006 77.946, 409.806 77.937, 410.762 77.687 C 411.718 77.437, 410.700 77.241, 408.500 77.252 C 406.300 77.263, 405.518 77.468, 406.762 77.707 M 402.357 79.513 C 401.503 81.737, 403.860 84.017, 406.872 83.882 C 409.411 83.767, 409.398 83.741, 406.500 83.104 C 404.227 82.605, 403.519 81.907, 403.579 80.223 C 403.672 77.642, 403.184 77.358, 402.357 79.513 M 482.399 80.250 C 482.003 80.938, 482.058 81.156, 482.520 80.736 C 482.983 80.316, 484.627 81.184, 486.173 82.666 C 488.882 85.261, 488.921 85.435, 487.242 87.430 L 485.500 89.500 487.774 87.573 L 490.049 85.646 486.828 82.323 C 483.134 78.511, 483.343 78.609, 482.399 80.250 M 190 85.500 C 191.866 87.425, 193.617 89, 193.892 89 C 194.167 89, 192.866 87.425, 191 85.500 C 189.134 83.575, 187.383 82, 187.108 82 C 186.833 82, 188.134 83.575, 190 85.500 M 232.004 86.345 C 234.640 89.350, 239.024 92.026, 241.200 91.961 C 241.915 91.939, 240.925 91.240, 239 90.406 C 237.075 89.572, 234.152 87.677, 232.504 86.195 L 229.507 83.500 232.004 86.345 M 303.193 98.250 L 303.385 105.500 303.746 99.026 C 303.945 95.465, 304.645 92.210, 305.304 91.791 C 306.113 91.277, 305.934 91.026, 304.750 91.015 C 303.225 91.002, 303.025 91.933, 303.193 98.250 M 205.250 92.716 C 206.762 92.945, 209.238 92.945, 210.750 92.716 C 212.262 92.487, 211.025 92.300, 208 92.300 C 204.975 92.300, 203.738 92.487, 205.250 92.716 M 37.812 98.748 C 46.233 98.916, 59.733 98.915, 67.812 98.748 C 75.890 98.580, 69 98.443, 52.500 98.443 C 36 98.444, 29.390 98.581, 37.812 98.748 M 139.264 98.718 C 140.784 98.947, 143.034 98.941, 144.264 98.704 C 145.494 98.467, 144.250 98.279, 141.500 98.286 C 138.750 98.294, 137.744 98.488, 139.264 98.718 M 119.660 102.769 C 120.298 103.174, 121.018 104.855, 121.260 106.503 C 121.659 109.221, 121.714 109.151, 121.850 105.750 C 121.969 102.783, 121.635 102.003, 120.250 102.015 C 119.114 102.025, 118.907 102.290, 119.660 102.769 M 88.320 111 C 88.320 114.575, 88.502 116.037, 88.723 114.250 C 88.945 112.463, 88.945 109.537, 88.723 107.750 C 88.502 105.963, 88.320 107.425, 88.320 111 M 152.252 108.500 C 152.263 110.700, 152.468 111.482, 152.707 110.238 C 152.946 108.994, 152.937 107.194, 152.687 106.238 C 152.437 105.282, 152.241 106.300, 152.252 108.500 M 190.500 109.403 C 185.865 111.448, 183.592 114.584, 183.710 118.768 C 183.843 123.430, 187.101 126.392, 194.445 128.527 C 199.957 130.130, 201.702 131.898, 199.722 133.878 C 197.904 135.696, 194.538 135.176, 190.531 132.456 C 187.020 130.074, 186.631 130.012, 184.391 131.479 C 181.100 133.636, 181.391 135.433, 185.542 138.600 C 189.218 141.404, 196.576 142.825, 201.289 141.642 C 205.420 140.606, 209 136.168, 209 132.086 C 209 126.806, 206.768 124.333, 200.223 122.361 C 193.911 120.460, 191.408 118.766, 192.441 117.096 C 193.449 115.465, 197.802 115.770, 201.069 117.700 C 203.858 119.347, 204.024 119.326, 206.479 117.020 L 209.011 114.641 206.830 112.319 C 203.093 108.342, 195.839 107.046, 190.500 109.403 M 277.485 110.048 C 276.660 112.646, 278.576 115, 281.515 115 C 284.040 115, 285.356 112.698, 284.455 109.859 C 283.604 107.176, 278.351 107.318, 277.485 110.048 M 380.479 108.932 C 370.060 111.422, 365.026 123.225, 370 133.500 C 373.800 141.349, 383.633 144.165, 392.765 140.020 C 398.110 137.594, 398.936 135.626, 395.947 132.444 L 393.641 129.989 391.506 131.994 C 389.383 133.988, 383.929 134.677, 380.545 133.379 C 378.467 132.582, 376 127.819, 376 124.605 C 376 123.234, 377.077 120.859, 378.394 119.328 C 380.275 117.142, 381.650 116.545, 384.814 116.545 C 387.140 116.545, 389.613 117.239, 390.670 118.189 C 392.378 119.723, 392.695 119.677, 395.430 117.485 C 397.976 115.446, 398.182 114.924, 397.003 113.503 C 393.930 109.801, 386.011 107.610, 380.479 108.932 M 536.500 109.403 C 531.990 111.393, 529.600 114.607, 529.600 118.679 C 529.600 123.159, 532.756 126.100, 540.189 128.547 C 546.023 130.467, 547.439 131.767, 545.820 133.716 C 544.160 135.717, 540.629 135.238, 536.531 132.456 C 533.020 130.074, 532.631 130.012, 530.391 131.479 C 527.095 133.639, 527.391 135.434, 531.572 138.623 C 538.593 143.978, 550.984 142.720, 553.882 136.359 C 556.954 129.618, 554.317 124.800, 546.223 122.361 C 539.911 120.460, 537.408 118.766, 538.441 117.096 C 539.417 115.516, 543.613 115.748, 547.152 117.578 C 550.053 119.079, 550.323 119.045, 552.608 116.899 L 555.011 114.641 552.830 112.319 C 549.093 108.342, 541.839 107.046, 536.500 109.403 M 583.053 111.250 C 582.559 112.487, 579.468 119.575, 576.183 127 C 572.898 134.425, 570.415 140.838, 570.664 141.250 C 570.914 141.662, 572.612 142, 574.438 142 C 577.183 142, 577.972 141.481, 579 139 C 580.205 136.091, 580.446 136, 586.902 136 C 593.414 136, 593.587 136.068, 594.718 139.064 C 595.766 141.841, 596.233 142.099, 599.687 141.814 C 602.173 141.609, 603.407 141.047, 603.232 140.197 C 603.085 139.481, 600.001 132.168, 596.379 123.947 C 590.056 109.599, 589.675 109, 586.871 109 C 584.775 109, 583.697 109.635, 583.053 111.250 M 618.518 110.625 C 615.071 114.072, 619.121 119.733, 623.750 117.937 C 626.692 116.796, 626.901 111.553, 624.066 110.035 C 621.424 108.621, 620.414 108.728, 618.518 110.625 M 452 114.430 C 452 116.187, 451.378 116.949, 449.756 117.180 C 448.186 117.404, 447.321 118.400, 446.875 120.500 C 446.524 122.150, 446.183 122.723, 446.118 121.773 C 445.891 118.461, 441.995 117.112, 432.750 117.144 L 424 117.174 424 129.647 L 424 142.121 427.750 141.810 L 431.500 141.500 432 133 C 432.476 124.909, 432.618 124.483, 434.944 124.155 C 438.681 123.628, 440 126.376, 440 134.691 L 440 142 443.500 142 L 447 142 447 133 C 447 124.067, 447.019 124, 449.500 124 C 451.901 124, 452 124.248, 452 130.277 C 452 137.801, 453.655 140.657, 458.545 141.574 C 462.032 142.229, 468 140.557, 468 138.926 C 468 138.468, 467.486 136.966, 466.858 135.588 C 465.913 133.513, 465.386 133.258, 463.794 134.110 C 460.837 135.693, 459 133.496, 459 128.378 L 459 124 463.063 124 C 467.045 124, 467.120 123.935, 466.813 120.750 C 466.527 117.783, 466.174 117.473, 462.750 117.190 C 459.526 116.923, 459 116.537, 459 114.440 C 459 112.318, 458.544 112, 455.500 112 C 452.460 112, 452 112.319, 452 114.430 M 214.400 120.400 C 211.406 123.394, 211 124.420, 211 128.996 C 211 132.631, 211.616 135.056, 213.050 137.071 C 216.821 142.366, 226.866 143.394, 232.179 139.029 L 234.500 137.122 232.321 134.910 C 230.361 132.919, 229.837 132.825, 227.091 133.962 C 223.913 135.279, 219 134.683, 219 132.981 C 219 132.420, 222.482 132, 227.130 132 L 235.260 132 234.728 127.282 C 233.969 120.545, 229.885 117, 222.884 117 C 218.435 117, 217.375 117.425, 214.400 120.400 M 237 129.500 L 237 142 240.500 142 L 244 142 244.015 134.250 C 244.032 125.904, 244.891 123.360, 247.372 124.312 C 248.311 124.673, 249.487 124.142, 250.290 122.997 C 251.517 121.244, 252.056 121.994, 256.471 131.590 C 260.941 141.307, 261.504 142.080, 263.904 141.802 C 266.175 141.538, 267.127 140.076, 271.500 130.136 L 276.500 118.772 277 130.136 L 277.500 141.500 281 141.500 L 284.500 141.500 284.780 129.311 L 285.061 117.123 277.175 117.106 L 269.289 117.088 266.547 123.294 L 263.805 129.500 260.949 123.250 L 258.092 117 247.546 117 L 237 117 237 129.500 M 291.598 120.202 C 283.463 128.337, 287.428 140.175, 298.799 141.700 C 303.100 142.277, 308.244 140.183, 310.192 137.064 C 311.312 135.271, 311.442 135.292, 313.235 137.571 C 317.017 142.379, 326.637 143.158, 331.935 139.085 C 334.316 137.254, 334.426 137.255, 336.968 139.134 C 344.427 144.649, 356 141.551, 356 134.039 C 356 130.371, 353.279 127.719, 347.722 125.973 C 345.165 125.169, 344.169 124.493, 345.198 124.260 C 346.131 124.047, 347.861 124.391, 349.042 125.022 C 350.845 125.988, 351.585 125.799, 353.665 123.845 L 356.141 121.518 353.515 119.259 C 349.643 115.929, 340.874 116.036, 337.455 119.455 C 336.105 120.805, 334.998 122.717, 334.996 123.705 C 334.994 124.957, 334.405 124.537, 333.050 122.314 C 331.981 120.561, 330.213 118.649, 329.119 118.064 C 326.263 116.535, 319.377 116.754, 316.041 118.479 C 312.629 120.243, 309.431 127.599, 310.400 131.457 C 311.063 134.098, 310.160 134.760, 308.357 132.957 C 307.632 132.232, 306.352 132.461, 304.168 133.707 C 301.298 135.344, 300.782 135.366, 298.262 133.967 C 293.043 131.069, 294.514 124, 300.335 124 C 302.131 124, 304.131 124.531, 304.780 125.180 C 305.686 126.086, 306.544 126.047, 308.480 125.011 C 313.858 122.132, 309.727 117.825, 300.981 117.192 C 295.296 116.781, 294.888 116.912, 291.598 120.202 M 401.400 120.400 C 398.508 123.292, 398 124.495, 398 128.450 C 398 134.464, 400.061 138.326, 404.357 140.365 C 408.577 142.368, 412.022 142.435, 416.410 140.602 C 420.842 138.750, 421.654 137.203, 419.371 134.956 C 417.727 133.337, 416.983 133.253, 413.244 134.265 C 409.572 135.258, 408.753 135.182, 407.280 133.708 C 405.669 132.097, 406.039 132, 413.786 132 L 422 132 422 128.404 C 422 124.045, 419.515 119.556, 416.288 118.085 C 414.978 117.488, 411.857 117, 409.353 117 C 405.508 117, 404.271 117.529, 401.400 120.400 M 472.881 118.503 C 467.104 121.643, 465.522 131.173, 469.814 136.977 C 473.732 142.273, 483.427 143.318, 488.987 139.045 L 491.474 137.134 489.063 134.567 C 486.701 132.053, 486.695 132, 488.758 132 C 493.272 132, 492.246 122.912, 487.293 119.016 C 484.235 116.610, 476.848 116.348, 472.881 118.503 M 494 129.500 L 494 142 497.461 142 L 500.922 142 501.211 133.250 C 501.486 124.937, 501.612 124.499, 503.750 124.472 C 506.340 124.440, 509.445 120.603, 508.621 118.454 C 508.206 117.373, 506.259 117, 501.031 117 L 494 117 494 129.500 M 120.765 121.831 C 121.179 122.910, 120.943 123.098, 119.920 122.504 C 119.139 122.050, 118.790 122.004, 119.145 122.401 C 119.500 122.799, 118.708 124.291, 117.385 125.718 C 116.062 127.146, 115.199 128.532, 115.466 128.799 C 116.200 129.533, 119.050 126.891, 118.495 125.991 C 118.229 125.561, 118.654 124.963, 119.440 124.661 C 121.558 123.849, 123.264 120.333, 121.541 120.333 C 120.753 120.333, 120.430 120.956, 120.765 121.831 M 585.098 125.149 C 584.494 126.881, 584 128.456, 584 128.649 C 584 128.842, 585.350 129, 587 129 C 588.650 129, 590 128.753, 590 128.450 C 590 127.630, 587.008 122, 586.572 122 C 586.365 122, 585.702 123.417, 585.098 125.149 M 53.302 123.746 C 58.693 123.926, 67.243 123.925, 72.302 123.744 C 77.361 123.563, 72.950 123.416, 62.500 123.417 C 52.050 123.418, 47.911 123.566, 53.302 123.746 M 320.296 124.574 C 318.690 125.792, 318.957 125.940, 322.809 125.968 C 325.179 125.986, 326.873 125.604, 326.575 125.121 C 325.573 123.500, 322.111 123.198, 320.296 124.574 M 477.750 123.772 C 474.435 124.482, 476.008 126, 480.059 126 C 482.291 126, 483.873 125.604, 483.575 125.121 C 482.865 123.972, 479.957 123.299, 477.750 123.772 M 219.500 125 C 219.126 125.605, 220.509 126, 223 126 C 225.491 126, 226.874 125.605, 226.500 125 C 226.160 124.450, 224.585 124, 223 124 C 221.415 124, 219.840 124.450, 219.500 125 M 406.500 125 C 406.126 125.605, 407.509 126, 410 126 C 412.491 126, 413.874 125.605, 413.500 125 C 413.160 124.450, 411.585 124, 410 124 C 408.415 124, 406.840 124.450, 406.500 125 M 118 129.500 C 115.571 131.975, 113.809 134, 114.084 134 C 114.359 134, 116.571 131.975, 119 129.500 C 121.429 127.025, 123.191 125, 122.916 125 C 122.641 125, 120.429 127.025, 118 129.500 M 111.004 129.496 C 108.537 132.122, 106.804 132.146, 108.980 129.524 C 109.676 128.686, 110.040 128, 109.790 128 C 109.540 128, 107.830 129.872, 105.991 132.161 L 102.648 136.321 105.869 134.419 C 108.909 132.622, 114.967 127, 113.861 127 C 113.579 127, 112.293 128.123, 111.004 129.496 M 334.823 129.223 C 334.523 131.341, 333.907 131.535, 326 132.004 C 317.858 132.487, 317.618 132.569, 320.299 133.937 C 322.626 135.125, 323.694 135.151, 326.621 134.093 C 329.647 132.998, 330.392 133.045, 331.917 134.425 C 333.555 135.907, 333.904 135.863, 336.450 133.861 C 339.077 131.794, 339.340 131.770, 342.008 133.346 C 345.025 135.128, 348.479 135.584, 347.548 134.077 C 347.234 133.569, 345.621 132.856, 343.965 132.492 C 342.308 132.128, 339.646 130.731, 338.049 129.388 L 335.146 126.945 334.823 129.223 M 104.029 130.469 C 102.753 131.827, 101.394 132.743, 101.008 132.505 C 100.622 132.266, 99 133.463, 97.403 135.165 C 94.928 137.803, 94.832 138.087, 96.750 137.094 C 97.987 136.454, 99 135.469, 99 134.906 C 99 134.343, 99.379 134.116, 99.842 134.402 C 100.304 134.688, 102.193 133.365, 104.038 131.461 C 105.883 129.557, 107.157 128, 106.870 128 C 106.583 128, 105.305 129.111, 104.029 130.469 M 476.441 133.532 C 477.509 134.339, 479.335 135, 480.500 135 C 481.665 135, 483.491 134.339, 484.559 133.532 C 486.335 132.188, 485.990 132.064, 480.500 132.064 C 475.010 132.064, 474.665 132.188, 476.441 133.532 M 509.571 134.571 C 507.593 136.550, 507.575 138.432, 509.514 140.371 C 510.866 141.723, 510.854 141.983, 509.400 142.796 C 507.550 143.831, 508.307 148, 510.345 148 C 512.737 148, 515.869 144.928, 517.014 141.459 C 517.985 138.517, 517.910 137.511, 516.567 135.462 C 514.722 132.646, 511.861 132.282, 509.571 134.571 M 559.571 134.571 C 557.365 136.777, 557.617 139.725, 560.126 141.068 C 562.913 142.559, 567 140.791, 567 138.093 C 567 135.844, 564.487 133, 562.500 133 C 561.754 133, 560.436 133.707, 559.571 134.571 M 608.035 134.934 C 607.466 135.998, 607 137.557, 607 138.399 C 607 139.886, 609.854 142, 611.863 142 C 613.314 142, 616 139.078, 616 137.500 C 616 135.534, 613.164 133, 610.964 133 C 609.922 133, 608.605 133.870, 608.035 134.934 M 57.191 141.747 C 64.171 141.918, 75.871 141.919, 83.191 141.748 C 90.511 141.577, 84.800 141.436, 70.500 141.436 C 56.200 141.435, 50.211 141.575, 57.191 141.747 M 42.750 163.749 C 54.438 163.909, 73.563 163.909, 85.250 163.749 C 96.938 163.589, 87.375 163.458, 64 163.458 C 40.625 163.458, 31.063 163.589, 42.750 163.749" stroke="none" fill="#7ea4c2" fill-rule="evenodd"/><path d="M 198.422 46.418 C 187.661 51.104, 182.573 62.727, 185.338 76.310 C 186.304 81.055, 192.145 87.696, 197.500 90.134 C 202.012 92.189, 210.501 92.544, 216.344 90.921 C 218.459 90.334, 221.834 88.344, 223.844 86.499 L 227.500 83.143 224.627 80.139 L 221.754 77.134 218.127 79.500 C 212.595 83.108, 207.885 83.607, 202.761 81.126 C 197.357 78.510, 194.999 74.625, 195.004 68.346 C 195.009 61.720, 197.636 57.686, 203.372 55.496 C 208.703 53.460, 213.494 54.028, 217.487 57.169 L 220.177 59.284 223.280 56.182 C 226.374 53.088, 226.377 53.074, 224.441 50.899 C 219.659 45.526, 205.910 43.158, 198.422 46.418 M 434 53 C 434 56.905, 433.917 57, 430.500 57 C 427.019 57, 427 57.024, 427 61.500 C 427 65.976, 427.019 66, 430.500 66 L 434 66 434 75.777 C 434 82.859, 434.414 86.147, 435.503 87.701 C 438.614 92.142, 448.133 93.109, 453.585 89.536 C 455.904 88.017, 455.921 87.902, 454.318 84.541 C 452.930 81.631, 452.388 81.257, 450.790 82.113 C 449.751 82.668, 447.686 82.983, 446.201 82.812 C 443.537 82.504, 443.496 82.386, 443.210 74.250 L 442.919 66 447.960 66 L 453 66 453 61.500 L 453 57 448 57 L 443 57 443 53 L 443 49 438.500 49 L 434 49 434 53 M 239 57.722 C 228.116 61.811, 224.442 77.291, 232.317 85.882 C 235.268 89.101, 241.712 91.951, 246.101 91.978 C 260.569 92.066, 269.262 78.393, 262.675 65.907 C 259.462 59.816, 254.318 57.014, 246.500 57.095 C 243.200 57.130, 239.825 57.412, 239 57.722 M 270 74.058 L 270 91 274.500 91 L 279 91 279 79.700 C 279 67.476, 279.550 66, 284.102 66 C 286.056 66, 287.368 65.109, 288.842 62.780 C 291.877 57.987, 290.498 57.159, 279.442 57.136 L 270 57.117 270 74.058 M 294 81 L 294 105 298.500 105 L 303 105 303 98.245 L 303 91.490 309.923 91.495 C 315.360 91.499, 317.440 91.057, 319.611 89.438 C 324.972 85.441, 326.443 82.419, 326.785 74.699 C 327.152 66.421, 325.356 62.407, 319.759 58.995 C 316.180 56.812, 308.186 56.295, 304.934 58.035 C 303.601 58.749, 303 58.749, 303 58.035 C 303 57.466, 300.975 57, 298.500 57 L 294 57 294 81 M 341.001 58.071 C 334.454 60.819, 331 66.597, 331 74.802 C 331 82.151, 333.620 86.519, 340.008 89.823 C 348.825 94.382, 361.487 90.816, 365.344 82.688 C 367.802 77.508, 367.519 69.058, 364.750 64.990 C 360.864 59.281, 357.676 57.591, 350.218 57.292 C 346.523 57.144, 342.375 57.494, 341.001 58.071 M 372 74.058 L 372 91 376.500 91 L 381 91 381 80.191 C 381 67.932, 381.973 65.379, 386.328 66.212 C 388.528 66.632, 389.311 66.137, 391.016 63.248 C 394.093 58.032, 392.726 57.159, 381.442 57.136 L 372 57.117 372 74.058 M 399.370 58.388 C 395.079 60.327, 394.595 61.506, 396.658 64.998 C 398.706 68.465, 398.824 68.494, 402.636 66.506 C 407.455 63.993, 414 65.161, 414 68.535 C 414 69.661, 412.591 70, 407.901 70 C 400.146 70, 395.213 72.247, 393.390 76.610 C 389.363 86.246, 399.036 94.629, 409.739 90.780 C 412.083 89.937, 414 89.642, 414 90.124 C 414 90.606, 416.059 91, 418.576 91 L 423.151 91 422.826 77.020 C 422.506 63.290, 422.451 62.990, 419.747 60.289 C 417.324 57.869, 416.122 57.505, 409.747 57.256 C 405.079 57.074, 401.386 57.477, 399.370 58.388 M 463.990 59.250 C 458.949 62.681, 456.953 66.055, 456.316 72.223 C 455.224 82.812, 461.278 90.417, 471.793 91.662 C 477.305 92.315, 482.520 90.952, 486.505 87.818 L 489.134 85.749 486.425 82.922 C 483.862 80.247, 483.566 80.173, 480.908 81.548 C 479.363 82.346, 476.377 83, 474.272 83 C 470.534 83, 466 80.794, 466 78.975 C 466 78.474, 471.288 77.937, 477.750 77.782 L 489.500 77.500 489.773 73 C 490.115 67.363, 487.664 62.317, 483.102 59.270 C 478.316 56.073, 468.673 56.063, 463.990 59.250 M 242.500 66.155 C 237.279 69.011, 236.238 76.329, 240.455 80.545 C 245.936 86.027, 255 82.426, 255 74.767 C 255 69.779, 254.205 68.157, 250.928 66.463 C 247.595 64.739, 245.245 64.653, 242.500 66.155 M 305.223 66.557 C 303.329 67.883, 303 69.039, 303 74.357 C 303 77.879, 303.523 81.123, 304.200 81.800 C 306.365 83.965, 312.842 83.249, 315.545 80.545 C 322.708 73.383, 313.429 60.809, 305.223 66.557 M 342.921 67.925 C 340.091 70.755, 339.810 71.548, 340.312 75.288 C 340.660 77.888, 341.700 80.148, 343.048 81.240 C 345.214 82.994, 350.379 83.559, 353.455 82.379 C 356.075 81.374, 358.252 76.155, 357.569 72.516 C 356.799 68.412, 354.227 66.073, 349.670 65.334 C 346.589 64.834, 345.652 65.194, 342.921 67.925 M 468.223 66.557 C 464.508 69.159, 465.675 70, 473 70 C 480.154 70, 481.198 69.341, 478.429 66.571 C 476.416 64.558, 471.086 64.551, 468.223 66.557 M 403.441 78.441 C 401.891 79.593, 401.722 80.247, 402.602 81.691 C 403.961 83.921, 406.771 84.418, 410.341 83.060 C 413.542 81.843, 414.871 79.165, 412.896 77.914 C 410.744 76.552, 405.599 76.839, 403.441 78.441 M 19.306 101.413 L 16.500 103.827 16.500 130.833 L 16.500 157.839 18.924 160.419 L 21.349 163 63.924 162.985 C 98.382 162.973, 107.723 162.682, 112.913 161.459 C 131.144 157.161, 144.352 142.583, 149.992 120.532 C 152.838 109.405, 152.675 104.530, 149.354 101.452 C 147.240 99.493, 145.646 99, 141.431 99 C 134.616 99, 130.563 102.077, 129.621 107.968 C 127.120 123.607, 116.787 135.164, 100.875 140.116 C 95.641 141.745, 91.511 142, 70.361 142 C 43.788 142, 41.505 141.599, 39.195 136.528 C 37.253 132.267, 37.774 129.072, 40.923 125.923 L 43.846 123 62.473 123 C 87.247 123, 88 122.627, 88 110.373 C 88 104.843, 87.645 103.554, 85.545 101.455 L 83.091 99 52.601 99 L 22.112 99 19.306 101.413 M 125.646 101.764 C 125.386 102.184, 124.650 105.447, 124.009 109.014 C 123.369 112.581, 121.977 117.525, 120.916 120 C 118.988 124.498, 118.988 124.499, 120.972 122 C 122.063 120.625, 123.637 117.475, 124.469 115 C 126.952 107.613, 127.779 98.312, 125.646 101.764 M 117.667 103.667 C 117.300 104.033, 117 105.514, 117 106.957 C 117 111.756, 113.974 121.438, 110.929 126.378 C 109.276 129.061, 108.106 131.439, 108.329 131.662 C 109.192 132.525, 115.417 124.331, 117.721 119.299 C 120.752 112.678, 121.990 103, 119.807 103 C 118.996 103, 118.033 103.300, 117.667 103.667 M 110.246 106.250 C 109.696 106.938, 108.945 110, 108.576 113.056 C 107.887 118.756, 104.685 126.738, 100.839 132.339 L 98.669 135.500 102.419 132 C 107.715 127.058, 110.827 121.311, 112.511 113.364 C 113.311 109.589, 113.973 106.162, 113.983 105.750 C 114.011 104.534, 111.331 104.893, 110.246 106.250" stroke="none" fill="#376595" fill-rule="evenodd"/></svg>