<svg xmlns="http://www.w3.org/2000/svg" viewBox="0 0 345.54 186.66"><defs><style>.cls-1{fill:#133f1b;}.cls-2{fill:#288831;}.cls-3{fill:#fff;}</style></defs><g id="Capa_2" data-name="Capa 2"><g id="Capa_1-2" data-name="Capa 1"><polygon class="cls-1" points="0 0 0 127.36 172.43 186.66 345.54 127.96 345.54 0 171.74 16.92 0 0"></polygon><polygon class="cls-2" points="9.88 14.43 9.88 120.04 172.45 173.22 335.66 120.09 335.66 15.04 171.8 28.17 9.88 14.43"></polygon><path class="cls-3" d="M207.08,35.61h3.14v.62h-2.38v1.89H210v.61h-2.2V41.3h-.76Z"></path><path class="cls-3" d="M215.67,40.09c0,.43,0,.8,0,1.12H215l0-.67h0a1.62,1.62,0,0,1-1.43.76c-.67,0-1.48-.36-1.48-1.79V37.12h.78v2.26c0,.77.26,1.3,1,1.3a1.13,1.13,0,0,0,1-.68,1.07,1.07,0,0,0,.07-.38v-2.5h.79Z"></path><path class="cls-3" d="M217.88,38.32c0-.43,0-.77,0-1.1h.69l.05.66h0a1.61,1.61,0,0,1,1.42-.76,1.51,1.51,0,0,1,1.52,1.74V41.3h-.78V39c0-.66-.26-1.22-1-1.22a1.12,1.12,0,0,0-1.05.76,1,1,0,0,0-.05.35V41.3h-.79Z"></path><path class="cls-3" d="M226.4,41.06a2.5,2.5,0,0,1-1.11.24,1.88,1.88,0,0,1-1.91-2.09A2,2,0,0,1,225.44,37a2.07,2.07,0,0,1,1,.22l-.16.56a1.65,1.65,0,0,0-.81-.19,1.39,1.39,0,0,0-1.36,1.55,1.37,1.37,0,0,0,1.34,1.53,2,2,0,0,0,.86-.19Z"></path><path class="cls-3" d="M229.54,36.14v1h1v.57h-1v2.2c0,.51.13.79.52.79a1.14,1.14,0,0,0,.41,0l0,.57a1.85,1.85,0,0,1-.62.1,1,1,0,0,1-.75-.31,1.67,1.67,0,0,1-.28-1.07V37.69h-.59v-.57h.59v-.75Z"></path><path class="cls-3" d="M232.6,36.46a.48.48,0,0,1,0-1,.44.44,0,0,1,.44.47.45.45,0,0,1-.45.48Zm-.34,4.84V37.22H233V41.3Z"></path><path class="cls-3" d="M237,41.3a2.05,2.05,0,0,1-2.18-2.1A2.11,2.11,0,0,1,237,37a2,2,0,0,1,2.19,2.09A2.12,2.12,0,0,1,237,41.3Zm0-.56a1.45,1.45,0,0,0,1.38-1.59A1.39,1.39,0,1,0,237,40.74Z"></path><path class="cls-3" d="M241.16,38.32c0-.43,0-.77,0-1.1h.69l0,.66h0a1.58,1.58,0,0,1,1.41-.76,1.51,1.51,0,0,1,1.51,1.74V41.3H244V39c0-.66-.25-1.22-1-1.22a1.12,1.12,0,0,0-1,.76,1.23,1.23,0,0,0,0,.35V41.3h-.77Z"></path><path class="cls-3" d="M250,40.23a5.86,5.86,0,0,0,.07,1h-.74l-.07-.52h0a1.73,1.73,0,0,1-1.38.61,1.24,1.24,0,0,1-1.39-1.17c0-1,1-1.53,2.72-1.52v-.09c0-.33-.1-1-1-.94a2.41,2.41,0,0,0-1.19.3l-.19-.5a3.23,3.23,0,0,1,1.5-.35A1.51,1.51,0,0,1,250,38.7Zm-.8-1.11c-.89,0-1.91.13-1.91.92a.68.68,0,0,0,.76.71,1.14,1.14,0,0,0,1.11-.68.67.67,0,0,0,0-.24Z"></path><path class="cls-3" d="M252.18,35.31h.69v6h-.69Z"></path><path class="cls-3" d="M258.35,35.66a9.48,9.48,0,0,1,1.49-.11,2.58,2.58,0,0,1,1.69.47,1.52,1.52,0,0,1,.54,1.2,1.63,1.63,0,0,1-.47,1.22,2.62,2.62,0,0,1-1.85.62,2.94,2.94,0,0,1-.62-.05V41.3h-.78Zm.78,2.75a2.9,2.9,0,0,0,.64.06c1,0,1.51-.44,1.51-1.21s-.56-1.13-1.42-1.13a3.64,3.64,0,0,0-.73.06Z"></path><path class="cls-3" d="M263.94,38.48c0-.48,0-.9,0-1.28h.6l0,.8h0a1.18,1.18,0,0,1,1.06-.9.63.63,0,0,1,.19,0v.7l-.25,0c-.48,0-.82.4-.92.95,0,.11,0,.23,0,.35V41.3h-.69Z"></path><path class="cls-3" d="M269.59,41.3a2,2,0,0,1-2.11-2.11A2.08,2.08,0,0,1,269.66,37a2,2,0,0,1,2.12,2.1,2.08,2.08,0,0,1-2.18,2.19Zm0-.56a1.44,1.44,0,0,0,1.34-1.6,1.35,1.35,0,1,0-1.35,1.6Z"></path><path class="cls-3" d="M274.59,36.12v1h1v.56h-1v2.21c0,.51.14.8.52.8a1.3,1.3,0,0,0,.4,0l0,.57a1.79,1.79,0,0,1-.61.1,1,1,0,0,1-.74-.31,1.7,1.7,0,0,1-.27-1.08V37.67h-.58v-.56h.58v-.76Z"></path><path class="cls-3" d="M277.86,39.29a1.37,1.37,0,0,0,1.51,1.43,3.23,3.23,0,0,0,1.22-.21l.15.53a3.83,3.83,0,0,1-1.48.26,2,2,0,0,1-2.18-2.07A2.07,2.07,0,0,1,279.17,37,1.78,1.78,0,0,1,281,38.94a1.6,1.6,0,0,1,0,.36Zm2.35-.53a1.09,1.09,0,0,0-1.11-1.21,1.26,1.26,0,0,0-1.23,1.21Z"></path><path class="cls-3" d="M283.2,36.44a.45.45,0,0,1-.43-.48.45.45,0,1,1,.89,0,.46.46,0,0,1-.45.48Zm-.32,4.86V37.2h.68v4.1Z"></path><path class="cls-3" d="M285.82,38.31c0-.43,0-.77,0-1.11h.69l0,.67h0A1.63,1.63,0,0,1,288,37.1c.59,0,1.51.34,1.51,1.75V41.3h-.78V38.94c0-.67-.25-1.22-1-1.22a1.11,1.11,0,0,0-1,.76,1,1,0,0,0-.05.35V41.3h-.79Z"></path><path class="cls-3" d="M294.69,40.28a3.13,3.13,0,0,0,1.52.38c.88,0,1.39-.4,1.39-1s-.36-.87-1.25-1.17c-1.08-.35-1.75-.86-1.75-1.68s.85-1.6,2.14-1.6a3.28,3.28,0,0,1,1.46.29l-.24.62a2.76,2.76,0,0,0-1.25-.28c-.9,0-1.25.48-1.25.88,0,.56.4.83,1.32,1.14,1.12.4,1.68.87,1.68,1.73s-.75,1.71-2.31,1.71a3.87,3.87,0,0,1-1.69-.38Z"></path><path class="cls-3" d="M302.06,41.3a2.14,2.14,0,0,1-2.28-2.18,2.2,2.2,0,0,1,2.36-2.25A2.12,2.12,0,0,1,304.43,39a2.21,2.21,0,0,1-2.36,2.26Zm0-.58a1.51,1.51,0,0,0,1.45-1.65,1.45,1.45,0,1,0-1.46,1.65Z"></path><path class="cls-3" d="M310,40.05c0,.44,0,.82,0,1.15h-.77l-.05-.69h0a1.8,1.8,0,0,1-1.57.79c-.75,0-1.64-.38-1.64-1.85V37h.86v2.34c0,.8.29,1.35,1.07,1.35A1.25,1.25,0,0,0,309,40a.9.9,0,0,0,.08-.39V37H310Z"></path><path class="cls-3" d="M311.9,38.29c0-.5,0-.93,0-1.32h.76l0,.83h0a1.41,1.41,0,0,1,1.32-.93.93.93,0,0,1,.24,0v.72l-.3,0a1.16,1.16,0,0,0-1.16,1,2.13,2.13,0,0,0,0,.37V41.2h-.87Z"></path><path class="cls-3" d="M318.92,41.06a3.9,3.9,0,0,1-1.37.24,2.15,2.15,0,0,1-2.37-2.17,2.31,2.31,0,0,1,2.56-2.26,3.09,3.09,0,0,1,1.2.23l-.2.59a2.29,2.29,0,0,0-1-.2,1.55,1.55,0,0,0-1.68,1.61,1.53,1.53,0,0,0,1.65,1.58,2.88,2.88,0,0,0,1.06-.2Z"></path><path class="cls-3" d="M320.84,39.22a1.44,1.44,0,0,0,1.62,1.47,3.76,3.76,0,0,0,1.32-.21l.16.54a4.41,4.41,0,0,1-1.6.27A2.1,2.1,0,0,1,320,39.16a2.18,2.18,0,0,1,2.25-2.3,1.86,1.86,0,0,1,1.95,2,1.77,1.77,0,0,1,0,.37Zm2.53-.55a1.14,1.14,0,0,0-1.19-1.25,1.33,1.33,0,0,0-1.33,1.25Z"></path><path class="cls-3" d="M148.8,94.62S134.74,56,133.21,54.78c-.34-.12-5.76.55-5.76.55a1.31,1.31,0,0,0-.22.26,4.57,4.57,0,0,0,0,1.17.83.83,0,0,0,.2.43l.67,1.35L115,90s-2.3,5.41-2.32,5.82c0,.81,1.88.44,2.4.44,1.18,0,2.16.28,2.25-.44.06-.46,1.67-5.7,1.67-5.7l3.26-8.79H137l5.77,15h3.65l1.88-.27s.72-.43.79-.68S148.8,94.62,148.8,94.62Zm-25.55-16,6.21-16.76s3.2,8.29,6.46,16.76Z"></path><path class="cls-3" d="M214.6,94.91S200.54,56.25,199,55.07c-.34-.11-5.76.56-5.76.56a1.28,1.28,0,0,0-.23.26,4.57,4.57,0,0,0,0,1.17.83.83,0,0,0,.2.43l.67,1.34L180.78,90.34s-2.3,5.41-2.32,5.82c0,.81,1.88.44,2.41.44,1.17,0,2.15.28,2.25-.44,0-.46,1.66-5.7,1.66-5.7L188,81.67h14.73c2.78,7.23,5.37,14,5.77,15h3.66l1.87-.27s.72-.43.79-.68S214.6,94.91,214.6,94.91Zm-25.55-16,6.22-16.75,6.45,16.75Z"></path><path class="cls-3" d="M35.87,54.14A6,6,0,0,0,35,52.37a2.74,2.74,0,0,0-.84-.23l-3.12.2L24.6,53.47l.24,2a13.53,13.53,0,0,1,3,.14c1.45.26,2.47,3.26,2.47,3.26s13,36.3,14.65,37.54a22.66,22.66,0,0,0,3.15-.23s.56-.18.59-.27c.11-.28,15.49-36.81,15.49-36.81s2.47-5.72,2.48-6.15c0-.86-2.35-.23-2.92-.23-1.26,0-2.66.22-2.76,1-.06.48-2.11,6.07-2.11,6.07l-10,28.11S36.31,55.27,35.87,54.14Z"></path><path class="cls-3" d="M117.35,56.11a2.19,2.19,0,0,1,.19,1L118,66l-1.74.07a21.65,21.65,0,0,0-1-3.62,4.32,4.32,0,0,0-2-2.81,9.72,9.72,0,0,0-4.26-.8h-6V89a59.71,59.71,0,0,0,.28,6.15c-.07,1-2.91,1.12-2.91,1.12s-3.39.51-3.43-.61,0-4.44,0-6.66V58.8H91.83a13.26,13.26,0,0,0-4.12.55,4.15,4.15,0,0,0-2.25,1.92,10.33,10.33,0,0,0-1.65,4.79l-1.6-.21.41-7.64a13.63,13.63,0,0,1,.09-1.89c.49-.47,8.26,0,8.26,0h9.23l14.72-.21A8.57,8.57,0,0,1,117.35,56.11Z"></path><path class="cls-3" d="M78.73,60.17l0,32.55c.09,3.72-.23,3.43-3.94,3.66-2.25,0-2.65.24-2.65-2.1l.06-31.73c.42-5.46-4.42-4-4.42-4l-.18-2s6.48-.83,9.89-1C79.39,55.4,78.62,58.2,78.73,60.17Z"></path><path class="cls-3" d="M261.92,75.29c3.73,0,6.12-1,8-2.64s2.25-3.82,2.25-6.42a7.68,7.68,0,0,0-2.25-5.83c-1.53-1.59-5.33-2.22-7.85-2.22-1.12,0-2,.08-1.94,2l0,32.25c.07,3.68-.21,3.39-3.66,3.62-2.09,0-2.46.24-2.46-2.08l.06-31.44c.39-5.41-4.1-4-4.1-4l-.17-2s9.43-1.19,12.6-1.28a39.71,39.71,0,0,1,9.2.95c2,.63,3.91,1.18,5.29,2.87a7.15,7.15,0,0,1,2,5.2c0,2.5-.39,5-2,6.89a12.07,12.07,0,0,1-6.37,4.28v.22a6.29,6.29,0,0,1,4.37,2,24.51,24.51,0,0,1,2.34,3.91c1.24,2.82,2.38,9.11,4.22,11.59a2.39,2.39,0,0,0,2.39.66l0,1.85s-5.29,1.52-8.08-.38c-1.9-1.29-3.32-8-3.32-8s-1.35-7-3.87-8.92c-1.64-1.22-5.82-1.22-6.44-1.22Z"></path><path class="cls-3" d="M301.8,55.36c5.17,0,10.43,1.45,14.22,5.32s4.91,9.18,4.91,15c0,6-1.51,10.94-5.34,14.87a19.43,19.43,0,0,1-14.26,5.88c-5.49,0-10.41-1.4-14.15-5.24s-5.28-9.33-5.28-15.42,2-11.79,6.28-15.72C291.92,56.59,296.59,55.36,301.8,55.36ZM301.19,58A10.68,10.68,0,0,0,292.57,62c-2.69,3.24-3.94,7.38-3.94,13.63,0,6.41,1.87,10.34,4.65,13.8a9.81,9.81,0,0,0,8.14,4c3.74,0,6.59-.88,9-3.76s3.75-7,3.75-13.22c0-6.71-1.33-10.55-4-13.85A11.57,11.57,0,0,0,301.19,58Z"></path><path class="cls-3" d="M176.53,86s-2,6.47-5.64,6.83c-1.29.24-9.6.36-9.75,0a16.62,16.62,0,0,1,0-2.92l0-29.49c-.11-2,.66-4.77-1.27-4.66-3.41.2-9.89,1-9.89,1l.18,2s4.84-1.45,4.42,4l0,31.74c0,2.34.39,2.1,2.64,2.1,1.15-.07,12.79,0,18.43,0l.2-.2L178,86.51Z"></path><path class="cls-3" d="M245.75,66l-1.68.17s-.15-6.41-7.37-7.41c-3.47-.81-9.53.39-12,3.61s-4,7-4,12.69,1.6,9.8,4.32,13.17a14.67,14.67,0,0,0,9.75,5.43,16.62,16.62,0,0,0,5.61-.47s-.17-11.21-.19-11.85a.91.91,0,0,0-.65-.94l-2.44-.49-.19-1.83c2.38-.06,5.47-.35,5.47-.35s2.35-.17,3.09-.1c.34,0,.5.92.55,2.09.11,2.48.11,6.75.11,6.75v8.18l-.16.2a56.65,56.65,0,0,1-11.71,1.82c-6.29,0-10.31-1.72-14-5.25s-5.75-8.51-5.75-14.83c0-6.72,2.08-11.74,5.94-15.55s8.25-5.37,14.93-5.37a42.9,42.9,0,0,1,9.7,1.1l.38.66Z"></path><path class="cls-3" d="M66,115.84a5.89,5.89,0,0,1-.67,1.59,3.47,3.47,0,0,1-.89,1,2.39,2.39,0,0,1-1,.44,2.51,2.51,0,0,1-1.09-.07,2.45,2.45,0,0,1-1.05-.55,2.25,2.25,0,0,1-.59-.94,3.2,3.2,0,0,1-.15-1.27,7.27,7.27,0,0,1,.26-1.55,6.1,6.1,0,0,1,.67-1.58,3.41,3.41,0,0,1,.89-1,2.23,2.23,0,0,1,1-.44,2.47,2.47,0,0,1,1.08.06,2.64,2.64,0,0,1,1,.56,2.25,2.25,0,0,1,.59.94,3.3,3.3,0,0,1,.16,1.26A7.08,7.08,0,0,1,66,115.84Zm-1-.19a5.94,5.94,0,0,0,.23-1.16,2.85,2.85,0,0,0,0-1,1.62,1.62,0,0,0-.35-.72,1.38,1.38,0,0,0-.7-.42,1.28,1.28,0,0,0-.8,0,1.72,1.72,0,0,0-.68.45,3.49,3.49,0,0,0-.54.8,6.19,6.19,0,0,0-.4,1,7,7,0,0,0-.22,1.17,3,3,0,0,0,0,1,1.52,1.52,0,0,0,.35.72,1.35,1.35,0,0,0,.69.42,1.28,1.28,0,0,0,.8,0,1.65,1.65,0,0,0,.68-.45,3,3,0,0,0,.55-.8A5.2,5.2,0,0,0,65,115.65Z"></path><path class="cls-3" d="M70.85,121l-1-.27-.4-2.54a2.62,2.62,0,0,0-.12-.5,1.36,1.36,0,0,0-.18-.34.92.92,0,0,0-.26-.22,1.42,1.42,0,0,0-.35-.14l-.43-.11-.84,3.17-.91-.25,1.88-7.11,1.8.48a3.22,3.22,0,0,1,1,.4,2,2,0,0,1,.59.56,1.67,1.67,0,0,1,.24.7,2.44,2.44,0,0,1-.08.79,2.39,2.39,0,0,1-.26.61,1.54,1.54,0,0,1-.42.46,1.77,1.77,0,0,1-.56.3,1.92,1.92,0,0,1-.69.1,1.18,1.18,0,0,1,.39.49,4.46,4.46,0,0,1,.22.8Zm-.1-5.55a1.07,1.07,0,0,0-.11-.94,1.4,1.4,0,0,0-.87-.53l-.86-.23-.62,2.35.74.2a2.13,2.13,0,0,0,.6.07,1.31,1.31,0,0,0,.5-.12,1.14,1.14,0,0,0,.39-.3A1.44,1.44,0,0,0,70.75,115.45Z"></path><path class="cls-3" d="M78.17,116.56a4.88,4.88,0,0,0-.69-.53,3.34,3.34,0,0,0-.84-.33,2.28,2.28,0,0,0-1,0,2.14,2.14,0,0,0-.85.4,2.65,2.65,0,0,0-.66.77,4.42,4.42,0,0,0-.43,1.11,5.63,5.63,0,0,0-.18,1.21,2.47,2.47,0,0,0,.17,1,1.66,1.66,0,0,0,.53.72,2.24,2.24,0,0,0,.93.44l.22,0,.23,0H76l.57-2.28-1.38-.34.2-.8,2.28.57-.91,3.65a4,4,0,0,1-.5.07,4.35,4.35,0,0,1-.51,0l-.5,0-.48-.09a3.3,3.3,0,0,1-1.18-.55,2.53,2.53,0,0,1-.78-.91,3.34,3.34,0,0,1-.31-1.27,5.82,5.82,0,0,1,.81-3.13,3.55,3.55,0,0,1,1-1,2.72,2.72,0,0,1,1.19-.49,3.33,3.33,0,0,1,1.36.08,3.47,3.47,0,0,1,.84.3,3.39,3.39,0,0,1,.72.46Z"></path><path class="cls-3" d="M83.3,124.06l-1-.24-.1-1.67-2.81-.67-.85,1.45-1-.23,3.94-6.62,1.26.3Zm-1.16-2.85-.23-4.09-2,3.55Z"></path><path class="cls-3" d="M88.79,125.3l-1.2-.27-1-4.92-.25-1.57-.81,3.62-.52,2.3-.86-.2,1.62-7.17,1.18.26.93,4.67.3,1.79.87-3.84.46-2,.86.19Z"></path><path class="cls-3" d="M93.48,119.65l-1.56-.33.18-.83,4.05.86-.17.83-1.56-.33-1.18,5.53,1.56.33-.17.84-4.06-.86.17-.84,1.57.33Z"></path><path class="cls-3" d="M101,127.55a4.27,4.27,0,0,1-1.78,0,2.76,2.76,0,0,1-2-1.36,4.16,4.16,0,0,1-.24-2.85,5.51,5.51,0,0,1,.53-1.53,3.66,3.66,0,0,1,.84-1.07,2.78,2.78,0,0,1,1.11-.56,3.08,3.08,0,0,1,1.32,0,4.33,4.33,0,0,1,.86.26,3.54,3.54,0,0,1,.73.42l-.2,1a3.63,3.63,0,0,0-.7-.48,3.07,3.07,0,0,0-.84-.28,1.84,1.84,0,0,0-1.67.43,2.73,2.73,0,0,0-.59.8,4.51,4.51,0,0,0-.39,1.16,3.65,3.65,0,0,0,.12,2.23,1.89,1.89,0,0,0,1.43,1,3.15,3.15,0,0,0,.86.06,3.91,3.91,0,0,0,.83-.15Z"></path><path class="cls-3" d="M113.25,130l-1.22-.21L110.81,125l-.32-1.55-.63,3.65-.39,2.32-.87-.15,1.24-7.25,1.2.21,1.16,4.61.4,1.77.67-3.88.35-2.06.87.15Z"></path><path class="cls-3" d="M119.87,128.5a4,4,0,0,1-.33,1.06,2.26,2.26,0,0,1-.6.75,2,2,0,0,1-.84.41,2.66,2.66,0,0,1-1.06,0,2.94,2.94,0,0,1-1.06-.35,1.84,1.84,0,0,1-.65-.62,2,2,0,0,1-.28-.84,3.68,3.68,0,0,1,0-1l.76-4.89.94.15L116,128a4.12,4.12,0,0,0,0,.76,1.32,1.32,0,0,0,.17.58,1.07,1.07,0,0,0,.39.4,1.9,1.9,0,0,0,.66.21,1.3,1.3,0,0,0,1.17-.28,2.14,2.14,0,0,0,.56-1.23l.75-4.8.93.15Z"></path><path class="cls-3" d="M126.63,125.49l-2-.29-.91,6.44-1-.14.91-6.44-2-.28.12-.85,5,.71Z"></path><path class="cls-3" d="M132,132.72l-1.06-.14-.73-2.46a2.4,2.4,0,0,0-.19-.47,1.13,1.13,0,0,0-.22-.32.88.88,0,0,0-.29-.18,1.06,1.06,0,0,0-.36-.09l-.45-.06-.4,3.25-.94-.12.91-7.3,1.85.23a3.37,3.37,0,0,1,1,.27,1.88,1.88,0,0,1,.66.48,1.58,1.58,0,0,1,.33.66,2.12,2.12,0,0,1,0,.8,2.1,2.1,0,0,1-.18.63,1.54,1.54,0,0,1-.35.52,1.59,1.59,0,0,1-.51.37,2.09,2.09,0,0,1-.67.2,1,1,0,0,1,.44.43,3.24,3.24,0,0,1,.33.76Zm-.84-5.49a1.1,1.1,0,0,0-.23-.92,1.5,1.5,0,0,0-.94-.41l-.88-.11-.31,2.41.76.1a2.45,2.45,0,0,0,.61,0,1.26,1.26,0,0,0,.48-.18,1.07,1.07,0,0,0,.34-.36A1.18,1.18,0,0,0,131.14,127.23Z"></path><path class="cls-3" d="M135.8,126.59l-1.59-.17.1-.84,4.12.44-.09.84-1.59-.17-.6,5.62,1.58.18-.09.85-4.13-.45.1-.85,1.58.17Z"></path><path class="cls-3" d="M144.87,127.48l-2.05-.18-.58,6.47-1-.08.58-6.48-2-.18.07-.86,5,.46Z"></path><path class="cls-3" d="M148,127.69l-1.59-.11.06-.84,4.14.29-.06.84-1.59-.11-.4,5.64,1.59.12-.06.85-4.14-.29.06-.86,1.6.12Z"></path><path class="cls-3" d="M157,131a5.88,5.88,0,0,1-.3,1.7,3.49,3.49,0,0,1-.66,1.16,2.22,2.22,0,0,1-.91.65,2.6,2.6,0,0,1-2.21-.14,2.11,2.11,0,0,1-.79-.78,3.61,3.61,0,0,1-.43-1.2,7.14,7.14,0,0,1-.08-1.57,6.48,6.48,0,0,1,.3-1.69,3.49,3.49,0,0,1,.66-1.16,2.26,2.26,0,0,1,.9-.65,2.62,2.62,0,0,1,2.22.14,2.36,2.36,0,0,1,.79.78,3.63,3.63,0,0,1,.43,1.19A7.14,7.14,0,0,1,157,131Zm-1,0a6.43,6.43,0,0,0,0-1.18,2.75,2.75,0,0,0-.25-.94,1.51,1.51,0,0,0-.5-.63,1.32,1.32,0,0,0-.78-.25,1.28,1.28,0,0,0-.78.18,1.78,1.78,0,0,0-.55.6,3.38,3.38,0,0,0-.36.9,6.33,6.33,0,0,0-.15,1.11,7.65,7.65,0,0,0,0,1.19,3.07,3.07,0,0,0,.26.94,1.61,1.61,0,0,0,.49.62,1.39,1.39,0,0,0,.77.26,1.33,1.33,0,0,0,.78-.19,1.79,1.79,0,0,0,.57-.59,3.31,3.31,0,0,0,.35-.9A5.6,5.6,0,0,0,156.06,131Z"></path><path class="cls-3" d="M162.72,134.9l-1.23,0-1.89-4.64-.55-1.5-.1,3.71-.06,2.36-.88,0,.2-7.35,1.21,0,1.81,4.4.65,1.7.11-3.94,0-2.09.88,0Z"></path><path class="cls-3" d="M174.65,128.32l-2.94.07,0,2.39,2.79-.07,0,.84-2.79.06.08,3.28-1,0-.17-7.35,3.91-.09Z"></path><path class="cls-3" d="M181.51,130.79a5.74,5.74,0,0,1-.14,1.72,3.42,3.42,0,0,1-.54,1.22,2.25,2.25,0,0,1-.84.73,2.66,2.66,0,0,1-2.22.08,2.24,2.24,0,0,1-.86-.7,3.66,3.66,0,0,1-.54-1.16,7.12,7.12,0,0,1-.23-1.56,6,6,0,0,1,.14-1.71,3.55,3.55,0,0,1,.53-1.21,2.39,2.39,0,0,1,.85-.74,2.48,2.48,0,0,1,1-.28,2.4,2.4,0,0,1,1.17.21,2.24,2.24,0,0,1,.86.7,3.33,3.33,0,0,1,.55,1.15A7,7,0,0,1,181.51,130.79Zm-1,.12a8,8,0,0,0-.14-1.18,3,3,0,0,0-.35-.91,1.49,1.49,0,0,0-.56-.58,1.44,1.44,0,0,0-.79-.18,1.3,1.3,0,0,0-.76.27,1.7,1.7,0,0,0-.5.64,3.5,3.5,0,0,0-.26.93,5.85,5.85,0,0,0,0,1.12,6.65,6.65,0,0,0,.15,1.18,3,3,0,0,0,.34.91,1.56,1.56,0,0,0,.56.58,1.42,1.42,0,0,0,.79.18,1.33,1.33,0,0,0,.75-.27,1.73,1.73,0,0,0,.51-.64,3.5,3.5,0,0,0,.26-.93A5.11,5.11,0,0,0,180.53,130.91Z"></path><path class="cls-3" d="M187.71,134.53h-1.07l-1.08-2.33a2.48,2.48,0,0,0-.24-.44,1.21,1.21,0,0,0-.27-.28.73.73,0,0,0-.31-.14,1.45,1.45,0,0,0-.37,0h-.45l.06,3.27-.95,0-.13-7.36,1.86,0a3.27,3.27,0,0,1,1,.12,2,2,0,0,1,.72.38,1.52,1.52,0,0,1,.42.61,2.41,2.41,0,0,1,.15.79,2.37,2.37,0,0,1-.09.65,1.93,1.93,0,0,1-.27.56,1.75,1.75,0,0,1-.46.44,2,2,0,0,1-.64.28,1.09,1.09,0,0,1,.51.37,4.56,4.56,0,0,1,.43.7Zm-1.61-5.31a1.11,1.11,0,0,0-.36-.88,1.55,1.55,0,0,0-1-.28l-.89,0,0,2.43h.77a2.21,2.21,0,0,0,.6-.1,1.1,1.1,0,0,0,.45-.25,1.14,1.14,0,0,0,.29-.39A1.53,1.53,0,0,0,186.1,129.22Z"></path><path class="cls-3" d="M199.58,128.81a2.52,2.52,0,0,1-.1.9,2.26,2.26,0,0,1-.44.82,2.64,2.64,0,0,1-.82.62,3.27,3.27,0,0,1-1.22.29l-.86.06.17,2.63-.94.06-.48-7.34,2-.12a3.67,3.67,0,0,1,1,0,2.37,2.37,0,0,1,.85.34,1.93,1.93,0,0,1,.61.66A2.27,2.27,0,0,1,199.58,128.81Zm-1,.1a1.34,1.34,0,0,0-.51-1,1.85,1.85,0,0,0-1.25-.3l-1,.06.2,3,.88-.06a2,2,0,0,0,1.26-.47A1.51,1.51,0,0,0,198.61,128.91Z"></path><path class="cls-3" d="M205.93,133.4l-4,.34-.63-7.33,1-.08.55,6.48,3-.26Z"></path><path class="cls-3" d="M212.84,132.68l-1,.11-.65-1.54-2.87.3L208,133.2l-1,.1,1.51-7.55,1.29-.14Zm-2-2.29-1.59-3.79-.75,4Z"></path><path class="cls-3" d="M218.42,132l-1.22.15-2.58-4.3-.76-1.39.46,3.68.29,2.34-.87.11-.92-7.3,1.21-.16,2.45,4.08.9,1.58-.49-3.91-.26-2.07.87-.11Z"></path><path class="cls-3" d="M223.84,124.66l-2,.29.93,6.43-1,.14-.92-6.44-2,.3-.12-.85,5-.72Z"></path><path class="cls-3" d="M230.34,128.18a2,2,0,0,1-.05.94,1.83,1.83,0,0,1-.45.74,2.52,2.52,0,0,1-.79.52,5,5,0,0,1-1.63.37l-.53,0h-.48l-.41,0-.16-1a5.15,5.15,0,0,0,.92.11,6.74,6.74,0,0,0,1.13-.1,3.37,3.37,0,0,0,.76-.19,1.59,1.59,0,0,0,.48-.31.77.77,0,0,0,.23-.41,1.14,1.14,0,0,0,0-.49.79.79,0,0,0-.24-.48,1.55,1.55,0,0,0-.46-.31,4.65,4.65,0,0,0-.63-.21l-.7-.17c-.24-.06-.47-.13-.71-.21a2.64,2.64,0,0,1-.63-.31,1.72,1.72,0,0,1-.5-.47,1.67,1.67,0,0,1-.27-.72,1.91,1.91,0,0,1,0-.75,1.61,1.61,0,0,1,.35-.72,2.26,2.26,0,0,1,.72-.58,3.34,3.34,0,0,1,1.13-.36l.37,0,.42,0h.42l.39,0,.14.89a7.89,7.89,0,0,0-.84,0,5.16,5.16,0,0,0-.79.06,2,2,0,0,0-1.13.47,1,1,0,0,0,0,1.31,1.83,1.83,0,0,0,.47.31,4.08,4.08,0,0,0,.62.21l.7.17c.24.06.48.13.71.21a2.56,2.56,0,0,1,.64.32,1.79,1.79,0,0,1,.5.49A1.67,1.67,0,0,1,230.34,128.18Z"></path><path class="cls-3" d="M243.51,127.77l-1,.2-.78-1.48-2.83.55-.17,1.67-1,.18.86-7.66,1.27-.25Zm-2.22-2.11L239.38,122l-.4,4.09Z"></path><path class="cls-3" d="M249.05,126.61l-1.21.25-2.92-4.07-.87-1.32.76,3.63.49,2.3-.87.18-1.51-7.2,1.19-.25,2.78,3.86,1,1.5-.81-3.85-.43-2,.86-.18Z"></path><path class="cls-3" d="M254.53,121.53a6.05,6.05,0,0,1,.15,1,4.14,4.14,0,0,1-.05.94,2.68,2.68,0,0,1-.26.83,2.53,2.53,0,0,1-.52.72,3.45,3.45,0,0,1-.8.56,4.28,4.28,0,0,1-1.13.39l-1.45.33-1.62-7.18,1.74-.39a3.09,3.09,0,0,1,2.56.33A4,4,0,0,1,254.53,121.53Zm-.95.29a5.58,5.58,0,0,0-.43-1.26,2.25,2.25,0,0,0-.6-.76,1.6,1.6,0,0,0-.8-.31,2.94,2.94,0,0,0-1,.07l-.79.18,1.24,5.51.69-.16Q254.2,124.57,253.58,121.82Z"></path><path class="cls-3" d="M266.67,120.35a1.85,1.85,0,0,1,0,.93,1.78,1.78,0,0,1-.38.78,2.44,2.44,0,0,1-.74.59,5,5,0,0,1-1.05.41l-.54.11-.52.08-.48,0h-.42l-.24-.93a5.62,5.62,0,0,0,.93,0,6.39,6.39,0,0,0,1.11-.2,3.33,3.33,0,0,0,.74-.26,1.67,1.67,0,0,0,.45-.35.9.9,0,0,0,.2-.43,1.45,1.45,0,0,0,0-.5.81.81,0,0,0-.28-.45,1.53,1.53,0,0,0-.49-.26,3.15,3.15,0,0,0-.64-.15l-.72-.11q-.36-.06-.72-.15a2.72,2.72,0,0,1-.66-.24,1.9,1.9,0,0,1-.54-.43,1.86,1.86,0,0,1-.34-.69,2.14,2.14,0,0,1,0-.76,1.74,1.74,0,0,1,.29-.74,2.41,2.41,0,0,1,.66-.65,3.93,3.93,0,0,1,1.09-.46l.38-.07c.13,0,.27,0,.41-.06s.28,0,.42,0l.39,0,.22.88a5.77,5.77,0,0,0-1.62.15,2,2,0,0,0-1.09.57.93.93,0,0,0-.18.85.87.87,0,0,0,.28.45,1.34,1.34,0,0,0,.5.27,3.52,3.52,0,0,0,.64.16l.71.11a6.26,6.26,0,0,1,.73.14,2.39,2.39,0,0,1,.66.26,1.9,1.9,0,0,1,.54.44A1.7,1.7,0,0,1,266.67,120.35Z"></path><path class="cls-3" d="M272.56,117a5.85,5.85,0,0,1,.23,1.71,3.47,3.47,0,0,1-.26,1.31,2.34,2.34,0,0,1-.66.9,2.76,2.76,0,0,1-1,.5,2.6,2.6,0,0,1-1.2.05,2.12,2.12,0,0,1-1-.49,3.53,3.53,0,0,1-.78-1,7,7,0,0,1-.56-1.48,5.72,5.72,0,0,1-.24-1.69,3.43,3.43,0,0,1,.26-1.31,2.34,2.34,0,0,1,.66-.9,2.59,2.59,0,0,1,1-.5,2.56,2.56,0,0,1,1.19,0,2.12,2.12,0,0,1,1,.5,3.22,3.22,0,0,1,.78,1A6.73,6.73,0,0,1,272.56,117Zm-.93.33a8,8,0,0,0-.4-1.12,3.16,3.16,0,0,0-.53-.81,1.54,1.54,0,0,0-.68-.44,1.25,1.25,0,0,0-.81,0,1.17,1.17,0,0,0-.68.42,1.61,1.61,0,0,0-.35.73,3.35,3.35,0,0,0-.06,1,5.69,5.69,0,0,0,.2,1.1,7.07,7.07,0,0,0,.4,1.13,3.16,3.16,0,0,0,.53.81,1.6,1.6,0,0,0,.67.44,1.39,1.39,0,0,0,.81,0,1.32,1.32,0,0,0,.68-.42,1.64,1.64,0,0,0,.35-.74,3,3,0,0,0,.06-1A5.61,5.61,0,0,0,271.63,117.29Z"></path><path class="cls-3" d="M274.68,113.46l-1.53.44-.23-.81,4-1.14.23.81-1.54.44,1.56,5.44,1.54-.44.23.82-4,1.14-.23-.82,1.53-.44Z"></path><path class="cls-3" d="M285.07,117.18l-3.82,1.16-2.13-7L280,111l1.88,6.22,2.9-.88Z"></path></g></g></svg>