<svg xmlns="http://www.w3.org/2000/svg" viewBox="0 0 269.76 145.73"><defs><style>.cls-1{fill:#63cfe3;}.cls-2{fill:#fff;}.cls-3{fill:none;stroke:#fff;stroke-miterlimit:10;stroke-width:1.42px;}</style></defs><g id="Capa_2" data-name="Capa 2"><g id="Capa_1-2" data-name="Capa 1"><polygon class="cls-1" points="0 0 0 99.43 134.62 145.73 269.76 99.9 269.76 0 134.08 13.21 0 0"></polygon><polygon class="cls-1" points="7.71 11.27 7.71 93.72 134.63 135.24 262.05 93.75 262.05 11.74 134.12 22 7.71 11.27"></polygon><path class="cls-2" d="M41.6,79.1c-.42,3-.83,6-1.25,9-.47,3.39.87,5,2.95,5.32,2.31.31,4-1,4.41-4.34.38-3,.77-6,1.15-9l2,.25q-.56,4.43-1.1,8.85C49.17,93.83,46.4,95.43,43,95c-3.2-.43-5.35-2.55-4.68-7.24.42-3,.85-5.95,1.27-8.92Z"></path><path class="cls-2" d="M53.34,88c.13-1.13.22-2.06.26-3l1.78.22c0,.6-.07,1.21-.1,1.81h0a4.1,4.1,0,0,1,3.88-1.63c1.53.17,3.8,1.32,3.41,5.07L61.93,97l-2-.22.69-6.29c.19-1.77-.32-3.3-2.21-3.51a2.91,2.91,0,0,0-3.18,2.62c-.26,2.19-.52,4.37-.77,6.56l-2-.24Z"></path><path class="cls-2" d="M78.21,98.12a7.63,7.63,0,0,1-3.28.36,5.25,5.25,0,0,1-5.07-6.09,5.66,5.66,0,0,1,6.49-5.26,6.73,6.73,0,0,1,2.74.8l-.58,1.5a4.72,4.72,0,0,0-2.29-.72,3.84,3.84,0,0,0-4.3,3.79,3.79,3.79,0,0,0,3.52,4.43A5.83,5.83,0,0,0,78,96.6C78.06,97.11,78.13,97.61,78.21,98.12Z"></path><path class="cls-2" d="M91,93.87a5.42,5.42,0,0,1-6,5.44,5.26,5.26,0,0,1-4.94-6c.3-3.66,2.89-5.61,6-5.39S91.18,90.52,91,93.87Zm-8.87-.51c-.18,2.39,1.09,4.31,3.09,4.46s3.53-1.55,3.7-4c.12-1.86-.66-4.27-3-4.44S82.27,91.28,82.1,93.36Z"></path><path class="cls-2" d="M94.16,83.52l2,.12q-.47,8-.92,16.08l-2-.12Q93.67,91.56,94.16,83.52Z"></path><path class="cls-2" d="M109.08,94.79a5.39,5.39,0,0,1-5.83,5.59,5.25,5.25,0,0,1-5.1-5.91c.21-3.67,2.75-5.69,5.81-5.55S109.21,91.43,109.08,94.79Zm-8.87-.28c-.12,2.4,1.2,4.29,3.2,4.38s3.49-1.64,3.59-4.11c.08-1.86-.77-4.26-3.15-4.36S100.32,92.43,100.21,94.51Z"></path><path class="cls-2" d="M111.71,92.91c.05-1.29.06-2.4,0-3.43l1.76.06V91.7h.09a3.37,3.37,0,0,1,3.15-2.32,2.35,2.35,0,0,1,.57.09c0,.63,0,1.25,0,1.88a3.31,3.31,0,0,0-.69-.09,2.85,2.85,0,0,0-2.79,2.49,6,6,0,0,0-.12.93l-.18,5.85-2-.07C111.54,97.94,111.63,95.43,111.71,92.91Z"></path><path class="cls-2" d="M125.19,100.79c0-.46-.09-.92-.14-1.39H125a4.19,4.19,0,0,1-3.47,1.58,3.16,3.16,0,0,1-3.37-3.23c.07-2.66,2.5-4,6.8-4v-.23A2.28,2.28,0,0,0,122.46,91a5.54,5.54,0,0,0-2.91.76c-.14-.45-.29-.89-.43-1.33a6.94,6.94,0,0,1,3.66-.9c3.39.06,4.19,2.35,4.17,4.55,0,1.37,0,2.74,0,4.11a14.29,14.29,0,0,0,.16,2.63ZM125,95.18c-2.22-.07-4.74.26-4.79,2.39a1.79,1.79,0,0,0,1.89,1.94,2.77,2.77,0,0,0,2.75-1.79,2,2,0,0,0,.12-.63Z"></path><path class="cls-2" d="M130.23,92.83c0-1.13,0-2.06-.07-3H132c0,.61.07,1.21.1,1.82h0a4.09,4.09,0,0,1,3.67-2.06c1.54,0,3.93.89,3.95,4.65q0,3.28.05,6.56h-2.05l0-6.33c0-1.77-.69-3.24-2.59-3.24a2.94,2.94,0,0,0-2.86,3q0,3.3,0,6.6h-2Q130.2,96.84,130.23,92.83Z"></path><path class="cls-2" d="M145.26,86.64l.05,3.16,2.88,0,0,1.52-2.89,0,.09,5.92c0,1.36.43,2.12,1.57,2.1a4.39,4.39,0,0,0,1.18-.15l.12,1.49a5.14,5.14,0,0,1-1.81.31,2.86,2.86,0,0,1-2.22-.81,4,4,0,0,1-.83-2.85q0-3-.07-6l-1.73,0c0-.5,0-1,0-1.52l1.72,0c0-.87,0-1.75,0-2.63Z"></path><path class="cls-2" d="M151.59,95.53a3.55,3.55,0,0,0,3.95,3.7,7.55,7.55,0,0,0,3.1-.66L159,100a9.19,9.19,0,0,1-3.72.8,5.12,5.12,0,0,1-5.66-5.39c-.07-3.31,1.84-6,5.07-6,3.61-.11,4.69,3,4.76,5a7.64,7.64,0,0,1,0,.93Zm5.92-1.6c0-1.28-.64-3.22-2.91-3.16-2,.06-2.89,1.94-3,3.33Z"></path><path class="cls-2" d="M166.8,92.1c-.06-1.13-.12-2.06-.23-3l1.78-.09.21,1.81h0a4.12,4.12,0,0,1,3.56-2.26c1.53-.08,4,.69,4.2,4.44q.19,3.28.4,6.55l-2,.12c-.12-2.11-.24-4.21-.37-6.32-.1-1.77-.85-3.2-2.75-3.1A2.9,2.9,0,0,0,169,92.47a2.79,2.79,0,0,0-.09.94l.33,6.6-2.05.09C167.05,97.44,166.92,94.77,166.8,92.1Z"></path><path class="cls-2" d="M186.31,98.94,186,97.57H186a4.25,4.25,0,0,1-3.33,1.88A3.17,3.17,0,0,1,179,96.54c-.17-2.65,2.13-4.25,6.43-4.54v-.23a2.28,2.28,0,0,0-2.71-2.35,5.58,5.58,0,0,0-2.83,1c-.19-.42-.37-.85-.55-1.28a7,7,0,0,1,3.57-1.22c3.38-.24,4.39,2,4.56,4.17.1,1.36.21,2.73.31,4.09a14.4,14.4,0,0,0,.39,2.61Zm-.72-5.56c-2.21.12-4.7.67-4.56,2.8A1.79,1.79,0,0,0,183.09,98a2.81,2.81,0,0,0,2.58-2,2,2,0,0,0,.06-.64C185.69,94.64,185.64,94,185.59,93.38Z"></path><path class="cls-2" d="M192.45,84.27l.27,3.14,2.88-.25c0,.51.09,1,.13,1.52l-2.88.25c.17,2,.33,3.93.5,5.9.12,1.36.58,2.09,1.71,2a4.86,4.86,0,0,0,1.17-.24c.08.5.15,1,.23,1.49a5.24,5.24,0,0,1-1.79.43,2.91,2.91,0,0,1-2.28-.65,4,4,0,0,1-1-2.79c-.16-2-.33-4-.49-6l-1.72.14L189,87.72l1.71-.14L190.54,85Z"></path><path class="cls-2" d="M208,94c.12,1.13.25,2.12.42,3l-1.81.19-.3-1.77h0a4.24,4.24,0,0,1-3.5,2.4c-1.77.18-4-.57-4.33-4.41q-.28-3.21-.59-6.4l2-.19c.19,2,.39,4,.58,6s1,3.42,2.84,3.24a3,3,0,0,0,2.5-2.08,2.89,2.89,0,0,0,.07-1l-.69-6.71,2-.21Z"></path><path class="cls-2" d="M210.82,89.07c-.15-1.28-.29-2.38-.47-3.39l1.75-.2c.11.71.21,1.42.32,2.13h.09a3.33,3.33,0,0,1,2.78-2.74,1.88,1.88,0,0,1,.58,0c.07.62.15,1.24.22,1.87a3.23,3.23,0,0,0-.69,0A2.84,2.84,0,0,0,213,89.6a6,6,0,0,0,0,.94l.66,5.81-2,.23Z"></path><path class="cls-2" d="M225.32,94.92c-.11-.45-.23-.9-.34-1.35h-.07a4.24,4.24,0,0,1-3.21,2.06,3.16,3.16,0,0,1-3.81-2.71c-.32-2.64,1.89-4.36,6.17-4.9l0-.22a2.28,2.28,0,0,0-2.84-2.2,5.65,5.65,0,0,0-2.77,1.18l-.62-1.25a7,7,0,0,1,3.5-1.43c3.37-.43,4.49,1.72,4.79,3.91.18,1.35.36,2.71.55,4.07a14.28,14.28,0,0,0,.53,2.58Zm-1-5.52c-2.21.25-4.66.94-4.4,3.06A1.79,1.79,0,0,0,222,94.11a2.81,2.81,0,0,0,2.47-2.17,2.4,2.4,0,0,0,0-.65C224.46,90.66,224.37,90,224.29,89.4Z"></path><path class="cls-2" d="M228.05,78.29l2-.28q1.14,8,2.27,15.95l-2,.29Z"></path><line class="cls-3" x1="22.01" y1="71.27" x2="247.75" y2="71.27"></line><path class="cls-2" d="M177.52,64.25s-9.78-26.92-10.85-27.74c-.23-.08-4,.39-4,.39a1.42,1.42,0,0,0-.16.17,3.21,3.21,0,0,0,0,.82.53.53,0,0,0,.14.29l.47.94L154,61.06s-1.6,3.77-1.61,4c0,.57,1.31.31,1.67.31.82,0,1.51.19,1.57-.31,0-.32,1.16-4,1.16-4L159,55h10.26c1.93,5,3.73,9.71,4,10.46h2.54l1.3-.19s.51-.3.56-.47S177.52,64.25,177.52,64.25ZM159.74,53.12l4.32-11.66,4.49,11.66Z"></path><path class="cls-2" d="M95.51,36.06a4.09,4.09,0,0,0-.59-1.23,1.76,1.76,0,0,0-.58-.16l-2.17.14-4.51.79L87.83,37a9.56,9.56,0,0,1,2.08.1c1,.19,1.72,2.27,1.72,2.27s9.06,25.27,10.2,26.14a16.47,16.47,0,0,0,2.2-.16,1.71,1.71,0,0,0,.4-.18l10.79-25.64s1.72-4,1.73-4.28c0-.6-1.64-.16-2-.16-.88,0-1.86.15-1.93.68,0,.34-1.47,4.23-1.47,4.23l-7,19.57S95.82,36.85,95.51,36.06Z"></path><path class="cls-2" d="M153.94,37.44a1.68,1.68,0,0,1,.13.66l.3,6.19-1.21.05a15,15,0,0,0-.7-2.52,3,3,0,0,0-1.38-2,6.64,6.64,0,0,0-3-.56h-4.18v21a42,42,0,0,0,.19,4.28c0,.72-2,.78-2,.78s-2.36.35-2.38-.43,0-3.09,0-4.63v-21h-3.57a9.13,9.13,0,0,0-2.86.38A2.88,2.88,0,0,0,131.73,41a7.18,7.18,0,0,0-1.15,3.33l-1.11-.14.28-5.32a9.07,9.07,0,0,1,.07-1.32c.34-.32,5.75,0,5.75,0H142l10.25-.14A6,6,0,0,1,153.94,37.44Z"></path><path class="cls-2" d="M19.16,52.37c2.43-.23,4.33-.68,5.67-1.87s1.9-3.8,1.9-5.64a6.9,6.9,0,0,0-2-4.64c-1.08-1.13-3.77-1.57-5.56-1.57-.79,0-1.44.05-1.37,1.44V62.91c.05,2.61-.15,2.4-2.59,2.56-1.48,0-1.74.18-1.74-1.47l0-22.25c.27-3.83-2.9-2.81-2.9-2.81l-.12-1.4s6.67-.83,8.91-.9a28.46,28.46,0,0,1,6.51.67,7.23,7.23,0,0,1,3.75,2,7.69,7.69,0,0,1,1.86,5.44,7.28,7.28,0,0,1-1.76,4.73,12.59,12.59,0,0,1-4.51,3,40.23,40.23,0,0,1-5.92,1.23Z"></path><path class="cls-2" d="M126.2,40.26l0,22.67c.06,2.59-.16,2.38-2.75,2.54-1.56,0-1.84.17-1.84-1.46l0-22.09c.29-3.8-3.08-2.79-3.08-2.79l-.12-1.39s4.51-.58,6.88-.72C126.65,36.94,126.12,38.89,126.2,40.26Z"></path><path class="cls-2" d="M42,50.57a7.91,7.91,0,0,0,5.66-1.87C49,47.51,49.23,46,49.23,44.17a5.42,5.42,0,0,0-1.59-4.12c-1.08-1.13-3.77-1.57-5.55-1.57-.79,0-1.44.06-1.37,1.44l0,22.79c.06,2.6-.14,2.4-2.58,2.56-1.47,0-1.73.17-1.73-1.47l0-22.22c.28-3.82-2.89-2.8-2.89-2.8l-.12-1.4s6.66-.83,8.9-.9a28.43,28.43,0,0,1,6.5.67,7.22,7.22,0,0,1,3.74,2A5,5,0,0,1,54,42.85a7.42,7.42,0,0,1-1.38,4.87,8.53,8.53,0,0,1-4.51,3v.15a4.49,4.49,0,0,1,3.08,1.44,17.27,17.27,0,0,1,1.66,2.76c.87,2,1.68,6.45,3,8.2a1.7,1.7,0,0,0,1.69.46l0,1.31s-3.74,1.08-5.71-.26c-1.35-.92-2.35-5.67-2.35-5.67s-1-4.94-2.73-6.3C45.57,52,42.61,52,42.18,52Z"></path><path class="cls-2" d="M73,36.49A13.77,13.77,0,0,1,83,40.24c2.68,2.74,3.48,6.49,3.48,10.58s-1.08,7.73-3.78,10.51a13.75,13.75,0,0,1-10.08,4.15c-3.88,0-7.36-1-10-3.7s-3.74-6.59-3.74-10.9,1.39-8.33,4.44-11.11C66,37.36,69.31,36.49,73,36.49Zm-.43,1.89a7.54,7.54,0,0,0-6.09,2.78c-1.9,2.29-2.78,5.22-2.78,9.64A14.34,14.34,0,0,0,67,60.55a7,7,0,0,0,5.75,2.82,7.59,7.59,0,0,0,6.39-2.66c1.72-2,2.65-5,2.65-9.34,0-4.74-.94-7.45-2.84-9.78A8.14,8.14,0,0,0,72.56,38.38Z"></path><path class="cls-2" d="M187,53.22v7a13.74,13.74,0,0,0,.12,2.16,2.58,2.58,0,0,0,.34,1,1.77,1.77,0,0,0,.62.56,6.77,6.77,0,0,0,1.34.48v1h-8.72v-1a4.08,4.08,0,0,0,1.71-.73,2,2,0,0,0,.57-1.15,13.68,13.68,0,0,0,.14-2.27V42.43a14.36,14.36,0,0,0-.11-2.08,2.59,2.59,0,0,0-.34-1,1.76,1.76,0,0,0-.63-.58,6.64,6.64,0,0,0-1.34-.49v-1H191q4.85,0,7.24,1.76a6.31,6.31,0,0,1,2.39,5.46A7.55,7.55,0,0,1,199,49.29a10.08,10.08,0,0,1-4.68,3.1v.17A6,6,0,0,1,196.5,54a14.69,14.69,0,0,1,2,3l1.86,3.39a20.23,20.23,0,0,0,1.38,2.28,5.39,5.39,0,0,0,1.18,1.2,4,4,0,0,0,1.59.57v1h-5.72a23.74,23.74,0,0,1-1.49-2.36c-.47-.84-.93-1.69-1.39-2.56l-1.82-3.45a22.57,22.57,0,0,0-1.35-2.32,4.15,4.15,0,0,0-1-1,3,3,0,0,0-1-.42,8.08,8.08,0,0,0-1.52-.11Zm0-14.06V51.44h2.34a12.8,12.8,0,0,0,2.91-.26,5.34,5.34,0,0,0,2.07-1,4.92,4.92,0,0,0,1.52-2,7.9,7.9,0,0,0,.57-3.18,7,7,0,0,0-.67-3.26,4.52,4.52,0,0,0-2-2,8.36,8.36,0,0,0-3.68-.68C188.8,39.08,187.8,39.11,187,39.16Z"></path><path class="cls-2" d="M226.34,37.26V43.5h-2a18.45,18.45,0,0,0-.64-1.77,8.44,8.44,0,0,0-.69-1.29,3.21,3.21,0,0,0-.77-.82,2.51,2.51,0,0,0-1-.43,7.91,7.91,0,0,0-1.39-.11H213.3V49.91h4.42a3.15,3.15,0,0,0,1.43-.26,2.06,2.06,0,0,0,.86-.87,8.89,8.89,0,0,0,.65-2h1.94v7.94h-1.94A8,8,0,0,0,220,52.9a2.3,2.3,0,0,0-.84-.9,3.11,3.11,0,0,0-1.46-.27H213.3V63.66h6.43a6.15,6.15,0,0,0,1.64-.18,2.49,2.49,0,0,0,1.09-.6,4,4,0,0,0,.8-1.1,9.25,9.25,0,0,0,.59-1.42c.16-.49.38-1.2.65-2.14h2.05l-.39,7.26H207v-1a4.07,4.07,0,0,0,1.72-.73,2,2,0,0,0,.57-1.15,13.94,13.94,0,0,0,.13-2.27V42.43a14.73,14.73,0,0,0-.1-2.08,2.59,2.59,0,0,0-.34-1,1.76,1.76,0,0,0-.63-.58,6.55,6.55,0,0,0-1.35-.49v-1Z"></path><path class="cls-2" d="M231.35,65.48v-1a6.4,6.4,0,0,0,1.36-.47,1.72,1.72,0,0,0,.64-.58,2.65,2.65,0,0,0,.33-1,15,15,0,0,0,.1-2.09V42.43a14.87,14.87,0,0,0-.1-2.1,2.48,2.48,0,0,0-.34-1,1.73,1.73,0,0,0-.63-.57,6.69,6.69,0,0,0-1.36-.49v-1h9.05a20.07,20.07,0,0,1,6.4.86,11,11,0,0,1,4.2,2.53,10.43,10.43,0,0,1,2.57,4.17,18.66,18.66,0,0,1,.84,5.94,21.5,21.5,0,0,1-.79,6.15,12.07,12.07,0,0,1-2.33,4.45A10.74,10.74,0,0,1,248.05,64a12.62,12.62,0,0,1-3.68,1.18,35.33,35.33,0,0,1-5.54.35Zm6.3-1.92c.55,0,1.36.08,2.44.08a15.2,15.2,0,0,0,3.1-.29,8.82,8.82,0,0,0,2.48-.91,6.8,6.8,0,0,0,2-1.73,9.37,9.37,0,0,0,1.44-2.54,14.18,14.18,0,0,0,.82-3.19,26.9,26.9,0,0,0,.26-3.85A17,17,0,0,0,249,44.24a8.18,8.18,0,0,0-3.41-3.94,10.52,10.52,0,0,0-5.26-1.24c-.94,0-1.83,0-2.67.08Z"></path></g></g></svg>