<svg xmlns="http://www.w3.org/2000/svg" viewBox="0 0 345.54 186.66"><defs><style>.cls-1{fill:#2b2115;}.cls-2{fill:#483d29;}.cls-3{fill:#fff;}</style></defs><g id="Capa_2" data-name="Capa 2"><g id="Capa_1-2" data-name="Capa 1"><polygon class="cls-1" points="0 0 0 127.36 172.43 186.66 345.54 127.96 345.54 0 171.74 16.92 0 0"></polygon><polygon class="cls-2" points="9.88 14.43 9.88 120.04 172.45 173.22 335.66 120.09 335.66 15.04 171.8 28.17 9.88 14.43"></polygon><path class="cls-3" d="M209,35.61h3.14v.62h-2.38v1.89h2.2v.61h-2.2V41.3H209Z"></path><path class="cls-3" d="M217.54,40.09c0,.43,0,.8,0,1.12h-.7l0-.67h0a1.63,1.63,0,0,1-1.43.76c-.68,0-1.49-.36-1.49-1.79V37.12h.79v2.26c0,.77.25,1.3,1,1.3a1.11,1.11,0,0,0,1-.68.89.89,0,0,0,.08-.38v-2.5h.78Z"></path><path class="cls-3" d="M219.76,38.32c0-.43,0-.77,0-1.1h.7l0,.66h0a1.6,1.6,0,0,1,1.42-.76,1.51,1.51,0,0,1,1.52,1.74V41.3h-.78V39c0-.66-.26-1.22-1-1.22a1.14,1.14,0,0,0-1,.76,1.23,1.23,0,0,0-.05.35V41.3h-.78Z"></path><path class="cls-3" d="M228.27,41.06a2.45,2.45,0,0,1-1.1.24,1.89,1.89,0,0,1-1.92-2.09A2,2,0,0,1,227.32,37a2.1,2.1,0,0,1,1,.22l-.16.56a1.68,1.68,0,0,0-.81-.19A1.39,1.39,0,0,0,226,39.17a1.37,1.37,0,0,0,1.34,1.53,1.94,1.94,0,0,0,.85-.19Z"></path><path class="cls-3" d="M231.41,36.14v1h1v.57h-1v2.2c0,.51.14.79.53.79a1,1,0,0,0,.4,0l0,.57a1.85,1.85,0,0,1-.62.1A1,1,0,0,1,231,41a1.67,1.67,0,0,1-.27-1.07V37.69h-.59v-.57h.59v-.75Z"></path><path class="cls-3" d="M234.47,36.46a.48.48,0,1,1,.47-.48.46.46,0,0,1-.46.48Zm-.33,4.84V37.22h.7V41.3Z"></path><path class="cls-3" d="M238.83,41.3a2.05,2.05,0,0,1-2.18-2.1A2.1,2.1,0,0,1,238.9,37a2,2,0,0,1,2.2,2.09,2.12,2.12,0,0,1-2.26,2.18Zm0-.56a1.45,1.45,0,0,0,1.38-1.59,1.39,1.39,0,1,0-1.39,1.59Z"></path><path class="cls-3" d="M243,38.32c0-.43,0-.77,0-1.1h.68l0,.66h0a1.58,1.58,0,0,1,1.41-.76c.59,0,1.5.34,1.5,1.74V41.3h-.77V39c0-.66-.26-1.22-1-1.22a1.12,1.12,0,0,0-1,.76,1,1,0,0,0-.05.35V41.3H243Z"></path><path class="cls-3" d="M251.91,40.23a5.86,5.86,0,0,0,.07,1h-.74l-.08-.52h0a1.76,1.76,0,0,1-1.39.61,1.23,1.23,0,0,1-1.38-1.17c0-1,1-1.53,2.72-1.52v-.09c0-.33-.1-1-1-.94a2.35,2.35,0,0,0-1.18.3l-.19-.5a3.15,3.15,0,0,1,1.49-.35,1.52,1.52,0,0,1,1.73,1.67Zm-.8-1.11c-.9,0-1.92.13-1.92.92a.69.69,0,0,0,.77.71,1.14,1.14,0,0,0,1.11-.68.67.67,0,0,0,0-.24Z"></path><path class="cls-3" d="M254.05,35.31h.7v6h-.7Z"></path><path class="cls-3" d="M260.23,35.66a9.28,9.28,0,0,1,1.49-.11,2.6,2.6,0,0,1,1.69.47,1.52,1.52,0,0,1,.54,1.2,1.6,1.6,0,0,1-.48,1.22,2.59,2.59,0,0,1-1.84.62A3,3,0,0,1,261,39V41.3h-.77Zm.77,2.75a3,3,0,0,0,.65.06c1,0,1.51-.44,1.51-1.21s-.56-1.13-1.42-1.13a3.84,3.84,0,0,0-.74.06Z"></path><path class="cls-3" d="M265.82,38.48c0-.48,0-.9,0-1.28h.6l0,.8h0a1.16,1.16,0,0,1,1.05-.9.54.54,0,0,1,.19,0v.7l-.24,0a1,1,0,0,0-.92.95,2,2,0,0,0,0,.35V41.3h-.69Z"></path><path class="cls-3" d="M271.46,41.3a2,2,0,0,1-2.11-2.11A2.09,2.09,0,0,1,271.54,37a2,2,0,0,1,2.11,2.1,2.08,2.08,0,0,1-2.18,2.19Zm0-.56a1.45,1.45,0,0,0,1.34-1.6,1.36,1.36,0,1,0-1.35,1.6Z"></path><path class="cls-3" d="M276.47,36.12v1h1v.56h-1v2.21c0,.51.13.8.52.8a1.4,1.4,0,0,0,.4,0l0,.57a1.83,1.83,0,0,1-.61.1,1,1,0,0,1-.74-.31,1.7,1.7,0,0,1-.27-1.08V37.67h-.58v-.56h.58v-.76Z"></path><path class="cls-3" d="M279.73,39.29a1.37,1.37,0,0,0,1.51,1.43,3.25,3.25,0,0,0,1.23-.21l.15.53a3.89,3.89,0,0,1-1.49.26A2,2,0,0,1,279,39.23,2.06,2.06,0,0,1,281,37a1.77,1.77,0,0,1,1.82,1.93,2.93,2.93,0,0,1,0,.36Zm2.36-.53A1.09,1.09,0,0,0,281,37.55a1.28,1.28,0,0,0-1.24,1.21Z"></path><path class="cls-3" d="M285.08,36.44a.48.48,0,0,1,0-.95.44.44,0,0,1,.44.47.45.45,0,0,1-.44.48Zm-.33,4.86V37.2h.69v4.1Z"></path><path class="cls-3" d="M287.7,38.31c0-.43,0-.77,0-1.11h.7l0,.67h0a1.61,1.61,0,0,1,1.42-.77c.6,0,1.52.34,1.52,1.75V41.3h-.78V38.94c0-.66-.26-1.22-1-1.22a1.11,1.11,0,0,0-1,.76,1,1,0,0,0-.06.35V41.3h-.78Z"></path><path class="cls-3" d="M296.56,40.28a3.2,3.2,0,0,0,1.53.38c.87,0,1.38-.4,1.38-1s-.35-.87-1.25-1.17c-1.08-.35-1.75-.86-1.75-1.68s.86-1.6,2.15-1.6a3.2,3.2,0,0,1,1.45.29l-.23.62a2.76,2.76,0,0,0-1.25-.28c-.91,0-1.25.48-1.25.88,0,.56.4.83,1.32,1.14,1.12.4,1.68.87,1.68,1.73s-.75,1.71-2.31,1.71a3.74,3.74,0,0,1-1.69-.38Z"></path><path class="cls-3" d="M303.94,41.3a2.14,2.14,0,0,1-2.28-2.18A2.2,2.2,0,0,1,304,36.87,2.13,2.13,0,0,1,306.31,39,2.21,2.21,0,0,1,304,41.3Zm0-.58a1.51,1.51,0,0,0,1.44-1.65A1.48,1.48,0,0,0,304,37.45a1.65,1.65,0,0,0,0,3.27Z"></path><path class="cls-3" d="M311.86,40.05c0,.44,0,.82,0,1.15h-.77l-.05-.69h0a1.83,1.83,0,0,1-1.57.79c-.75,0-1.64-.38-1.64-1.85V37h.86v2.34c0,.8.29,1.35,1.06,1.35a1.24,1.24,0,0,0,1.14-.71.9.9,0,0,0,.08-.39V37h.87Z"></path><path class="cls-3" d="M313.78,38.29c0-.5,0-.93,0-1.32h.76l0,.83h0a1.43,1.43,0,0,1,1.33-.93.93.93,0,0,1,.24,0v.72l-.31,0a1.16,1.16,0,0,0-1.16,1,2.13,2.13,0,0,0,0,.37V41.2h-.86Z"></path><path class="cls-3" d="M320.79,41.06a3.78,3.78,0,0,1-1.36.24,2.14,2.14,0,0,1-2.37-2.17,2.3,2.3,0,0,1,2.55-2.26,3.05,3.05,0,0,1,1.2.23l-.19.59a2.3,2.3,0,0,0-1-.2,1.55,1.55,0,0,0-1.68,1.61,1.54,1.54,0,0,0,1.65,1.58,2.89,2.89,0,0,0,1.07-.2Z"></path><path class="cls-3" d="M322.72,39.22a1.44,1.44,0,0,0,1.62,1.47,3.65,3.65,0,0,0,1.31-.21l.16.54a4.3,4.3,0,0,1-1.59.27,2.1,2.1,0,0,1-2.34-2.13,2.17,2.17,0,0,1,2.24-2.3,1.86,1.86,0,0,1,2,2,1.77,1.77,0,0,1,0,.37Zm2.52-.55a1.14,1.14,0,0,0-1.19-1.25,1.32,1.32,0,0,0-1.32,1.25Z"></path><path class="cls-3" d="M304.67,100.67S289.19,58.1,287.51,56.81c-.38-.13-6.34.61-6.34.61a1.49,1.49,0,0,0-.25.28,5.05,5.05,0,0,0,0,1.29.9.9,0,0,0,.22.47l.73,1.49L267.43,95.63s-2.53,6-2.55,6.41c0,.9,2.06.49,2.64.49,1.3,0,2.38.3,2.48-.49.06-.5,1.83-6.27,1.83-6.27l3.59-9.68h16.22c3.07,8,5.91,15.35,6.36,16.53h4l2.06-.29s.8-.47.88-.75S304.67,100.67,304.67,100.67ZM276.54,83.08l6.84-18.45,7.1,18.45Z"></path><path class="cls-3" d="M175,56.11a6.54,6.54,0,0,0-.93-2,2.88,2.88,0,0,0-.93-.26l-3.42.22-7.13,1.25.26,2.14a15.55,15.55,0,0,1,3.29.16c1.6.29,2.72,3.59,2.72,3.59s14.32,40,16.13,41.33a23.82,23.82,0,0,0,3.47-.25,2.56,2.56,0,0,0,.65-.29c.12-.32,17-40.54,17-40.54s2.72-6.29,2.74-6.77c0-1-2.59-.25-3.22-.25-1.39,0-2.93.24-3,1.08-.07.53-2.32,6.68-2.32,6.68l-11,31Z"></path><path class="cls-3" d="M267.37,58.28a2.47,2.47,0,0,1,.2,1l.48,9.79-1.91.08a23,23,0,0,0-1.11-4,4.79,4.79,0,0,0-2.18-3.09,10.6,10.6,0,0,0-4.69-.88h-6.61V94.5a67.52,67.52,0,0,0,.3,6.77c-.07,1.13-3.21,1.23-3.21,1.23s-3.73.55-3.77-.68,0-4.89,0-7.32V61.24h-5.64a14.49,14.49,0,0,0-4.53.6A4.61,4.61,0,0,0,232.25,64a11.35,11.35,0,0,0-1.81,5.28L228.68,69l.44-8.41a14.55,14.55,0,0,1,.11-2.08c.54-.52,9.09,0,9.09,0h10.16l16.2-.23S267.16,58,267.37,58.28Z"></path><path class="cls-3" d="M54.24,81.9c3.84-.38,6.85-1.08,9-3s3-6,3-8.93a11,11,0,0,0-3.08-7.34c-1.72-1.78-6-2.48-8.8-2.48-1.25,0-2.28.09-2.16,2.28l0,36.09c.09,4.12-.23,3.8-4.09,4.06-2.34,0-2.75.27-2.75-2.34l.06-35.18c.44-6-4.59-4.44-4.59-4.44l-.19-2.21S51.13,57.13,54.67,57a44,44,0,0,1,10.3,1c2.21.71,4.38,1.33,5.92,3.22a12.14,12.14,0,0,1,3,8.6A11.53,11.53,0,0,1,71,77.39a19.8,19.8,0,0,1-7.13,4.79,63.31,63.31,0,0,1-9.35,1.95Z"></path><path class="cls-3" d="M223.5,62.75l0,35.84c.09,4.09-.25,3.77-4.34,4-2.47,0-2.91.26-2.91-2.32l.06-34.94c.47-6-4.87-4.41-4.87-4.41l-.2-2.19s7.14-.92,10.89-1.14C224.23,57.5,223.38,60.57,223.5,62.75Z"></path><path class="cls-3" d="M90.32,79.05c4.18,0,6.84-1.08,9-3s2.51-4.26,2.51-7.17a8.57,8.57,0,0,0-2.51-6.51c-1.71-1.78-6-2.48-8.78-2.48-1.25,0-2.28.09-2.16,2.27l0,36c.09,4.12-.23,3.8-4.09,4.05-2.33,0-2.74.27-2.74-2.33l.06-35.13C82,58.79,77,60.4,77,60.4l-.19-2.21s10.54-1.32,14.08-1.42a43.88,43.88,0,0,1,10.28,1.06c2.2.7,4.37,1.32,5.91,3.21a7.92,7.92,0,0,1,2.25,5.8c0,2.8-.44,5.65-2.19,7.71A13.51,13.51,0,0,1,100,79.33v.24a7,7,0,0,1,4.88,2.28,27.63,27.63,0,0,1,2.62,4.37c1.38,3.16,2.66,10.19,4.71,13a2.69,2.69,0,0,0,2.67.73l.05,2.07s-5.91,1.7-9-.42c-2.13-1.45-3.72-9-3.72-9s-1.5-7.81-4.31-10c-1.84-1.37-6.51-1.37-7.2-1.37Z"></path><path class="cls-3" d="M139.37,56.78c5.78,0,11.66,1.62,15.89,5.94s5.49,10.25,5.49,16.72c0,6.66-1.69,12.22-6,16.62a21.74,21.74,0,0,1-15.94,6.56c-6.14,0-11.64-1.56-15.81-5.85s-5.91-10.42-5.91-17.23c0-7,2.2-13.17,7-17.57C128.33,58.16,133.55,56.78,139.37,56.78Zm-.68,3a12,12,0,0,0-9.64,4.4c-3,3.62-4.39,8.26-4.39,15.24,0,7.15,2.08,11.55,5.19,15.41a11,11,0,0,0,9.09,4.47c4.19,0,7.37-1,10.1-4.2s4.19-7.86,4.19-14.78c0-7.5-1.49-11.79-4.49-15.47A12.9,12.9,0,0,0,138.69,59.77Z"></path><path class="cls-3" d="M61.72,127.17l-.89-.3,1.08-3.2-2.75-.93-1.09,3.19-.89-.3,2.36-7,.9.31-1,2.94,2.75.94,1-2.94.89.3Z"></path><path class="cls-3" d="M66.93,122l-1.53-.46.24-.81,4,1.19-.24.81-1.53-.46-1.62,5.42,1.53.46-.25.82-4-1.19.24-.82,1.54.46Z"></path><path class="cls-3" d="M75.34,124.76a3.78,3.78,0,0,0-.68-.53,3.3,3.3,0,0,0-.83-.36,2.28,2.28,0,0,0-1-.05,1.93,1.93,0,0,0-.85.38,2.8,2.8,0,0,0-.68.76,4.61,4.61,0,0,0-.46,1.1,5.7,5.7,0,0,0-.19,1.2,2.5,2.5,0,0,0,.15,1,1.7,1.7,0,0,0,.51.73,2.53,2.53,0,0,0,.93.46l.21,0a1,1,0,0,0,.24,0l.23,0h.2l.61-2.26-1.37-.37.22-.8,2.27.61-1,3.63a3.61,3.61,0,0,1-.49.07,4.34,4.34,0,0,1-.51,0,2.94,2.94,0,0,1-.51,0,2.46,2.46,0,0,1-.47-.1,3.31,3.31,0,0,1-1.18-.56,2.62,2.62,0,0,1-.75-.93,3.17,3.17,0,0,1-.29-1.28,5.26,5.26,0,0,1,.21-1.6,5.11,5.11,0,0,1,.66-1.51,3.4,3.4,0,0,1,1-1,2.71,2.71,0,0,1,1.2-.46,3.33,3.33,0,0,1,1.36.09,4.78,4.78,0,0,1,.83.32,3.17,3.17,0,0,1,.71.48Z"></path><path class="cls-3" d="M79.83,132.18l-.91-.23.81-3.28L76.9,128l-.81,3.27-.92-.22L77,123.88l.92.23-.76,3,2.83.7.75-3,.92.23Z"></path><path class="cls-3" d="M85.71,133.53l-3.89-.89,1.64-7.17.94.22L82.94,132l3,.68Z"></path><path class="cls-3" d="M94,127.79,90.6,131.9l-.54,2.57-.94-.2.55-2.59-1.48-5.12,1.12.23.79,2.92.27,1.16L91,130l2-2.44Z"></path><path class="cls-3" d="M105,133.51a6.11,6.11,0,0,1-.25,1,4.08,4.08,0,0,1-.4.84,2.85,2.85,0,0,1-.57.67,2.48,2.48,0,0,1-.75.46,3.54,3.54,0,0,1-1,.21,4.94,4.94,0,0,1-1.18-.08l-1.47-.26,1.3-7.24,1.76.31a3.1,3.1,0,0,1,2.23,1.3A3.92,3.92,0,0,1,105,133.51Zm-1-.1a5.38,5.38,0,0,0,.09-1.33,2.12,2.12,0,0,0-.26-.93,1.53,1.53,0,0,0-.61-.6,2.8,2.8,0,0,0-1-.32l-.8-.15-1,5.56.7.12Q103.54,136.18,104,133.41Z"></path><path class="cls-3" d="M108.53,131.3,107,131l.14-.83,4.09.67-.13.83-1.58-.26-.91,5.59,1.58.25-.14.85-4.1-.67.14-.85,1.58.26Z"></path><path class="cls-3" d="M117.3,133.07a3.38,3.38,0,0,0-.74-.46,3.09,3.09,0,0,0-.86-.25,2.2,2.2,0,0,0-1,.07,1.91,1.91,0,0,0-.8.47,2.63,2.63,0,0,0-.59.84,4.3,4.3,0,0,0-.32,1.15,4.59,4.59,0,0,0,0,1.21,2.51,2.51,0,0,0,.26,1,1.73,1.73,0,0,0,.6.66,2.28,2.28,0,0,0,1,.34l.22,0h.23l.23,0a1.06,1.06,0,0,0,.2,0l.35-2.32-1.41-.2.13-.82L117,135l-.55,3.72a3.37,3.37,0,0,1-.48.12,3,3,0,0,1-.51.07,4.34,4.34,0,0,1-.51,0,3.58,3.58,0,0,1-.48,0,3.31,3.31,0,0,1-1.23-.42,2.47,2.47,0,0,1-.86-.84,3,3,0,0,1-.44-1.23,5.21,5.21,0,0,1,0-1.62,5.08,5.08,0,0,1,.48-1.57,3.39,3.39,0,0,1,.84-1.11,3,3,0,0,1,1.14-.6,3.42,3.42,0,0,1,1.36-.06,4.61,4.61,0,0,1,.87.22,3.64,3.64,0,0,1,.76.39Z"></path><path class="cls-3" d="M122.28,139.89l-3.91-.52,1-7.29,3.91.52-.11.83-3-.39-.3,2.26,2.86.38-.11.84-2.86-.38-.33,2.51,3,.39Z"></path><path class="cls-3" d="M129,138.69a2,2,0,0,1-.31.89,1.79,1.79,0,0,1-.64.58,2.51,2.51,0,0,1-.9.29,4.74,4.74,0,0,1-1.13,0,5.07,5.07,0,0,1-.54-.09c-.18,0-.35-.07-.52-.12l-.46-.13-.39-.14.12-1a5.18,5.18,0,0,0,.85.35,7.78,7.78,0,0,0,1.11.22,3.52,3.52,0,0,0,.79,0,1.37,1.37,0,0,0,.54-.16.83.83,0,0,0,.34-.33,1.13,1.13,0,0,0,.15-.47.86.86,0,0,0-.1-.53,1.39,1.39,0,0,0-.36-.42,4.63,4.63,0,0,0-.54-.37q-.31-.17-.63-.36c-.21-.12-.42-.25-.62-.39a2.7,2.7,0,0,1-.53-.47,1.89,1.89,0,0,1-.35-.6,1.69,1.69,0,0,1-.07-.76A1.92,1.92,0,0,1,125,134a1.75,1.75,0,0,1,.53-.59,2.51,2.51,0,0,1,.86-.36,3.47,3.47,0,0,1,1.18,0l.37.06.41.1.4.12a3.19,3.19,0,0,1,.37.13l-.11.89a5.71,5.71,0,0,0-.79-.28,4.32,4.32,0,0,0-.78-.16,2,2,0,0,0-1.21.15.89.89,0,0,0-.47.72.81.81,0,0,0,.09.52,1.49,1.49,0,0,0,.37.43,3.4,3.4,0,0,0,.54.38l.62.36a6.65,6.65,0,0,1,.63.39,2.71,2.71,0,0,1,.53.48,1.92,1.92,0,0,1,.34.61A1.74,1.74,0,0,1,129,138.69Z"></path><path class="cls-3" d="M135.83,134.87l-2.05-.21-.66,6.47-1-.1.66-6.47-2-.21.09-.85,5,.52Z"></path><path class="cls-3" d="M138.9,135.14l-1.59-.14.08-.84,4.13.36-.07.84-1.59-.14-.5,5.64L141,141l-.07.85-4.14-.36.08-.86,1.59.14Z"></path><path class="cls-3" d="M147.58,140.15a2.1,2.1,0,0,1-.26.92,1.93,1.93,0,0,1-.6.64,2.46,2.46,0,0,1-.89.37,4.21,4.21,0,0,1-1.14.06l-1.81-.13.54-7.34,2,.15c1.55.11,2.27.76,2.19,2a1.87,1.87,0,0,1-.34,1,1.62,1.62,0,0,1-.92.57,2.42,2.42,0,0,1,.52.23,1.66,1.66,0,0,1,.41.38,1.56,1.56,0,0,1,.27.53A1.8,1.8,0,0,1,147.58,140.15Zm-1,0a1.26,1.26,0,0,0-.07-.52,1.17,1.17,0,0,0-.3-.4,1.82,1.82,0,0,0-.5-.28,2.65,2.65,0,0,0-.68-.13l-1-.07-.18,2.53,1,.07a1.93,1.93,0,0,0,1.23-.23A1.22,1.22,0,0,0,146.58,140.11Zm0-3.28a1.53,1.53,0,0,0,0-.43.82.82,0,0,0-.2-.35,1.11,1.11,0,0,0-.41-.26,2.32,2.32,0,0,0-.68-.14l-1-.07-.17,2.3.94.07a2.77,2.77,0,0,0,.59,0,1.33,1.33,0,0,0,.47-.19,1.22,1.22,0,0,0,.32-.36A1.43,1.43,0,0,0,146.59,136.83Z"></path><path class="cls-3" d="M153.46,142.7l-4-.23.42-7.34,1,.05-.37,6.49,3,.17Z"></path><path class="cls-3" d="M159.47,143l-3.94-.16.31-7.35,3.94.16,0,.84-3-.12-.1,2.28,2.88.12,0,.84-2.87-.12-.11,2.53,3,.13Z"></path><path class="cls-3" d="M172.35,138.12a2.55,2.55,0,0,1-.17.89,2.31,2.31,0,0,1-.5.78,2.51,2.51,0,0,1-.86.56,3.32,3.32,0,0,1-1.24.21h-.86l0,2.64h-.94l.07-7.36,2,0a4.07,4.07,0,0,1,1,.13,2.24,2.24,0,0,1,.82.4,2,2,0,0,1,.57.7A2.55,2.55,0,0,1,172.35,138.12Zm-1,0a1.38,1.38,0,0,0-.43-1.09,1.87,1.87,0,0,0-1.22-.39h-1l0,3h.89a1.88,1.88,0,0,0,1.29-.38A1.45,1.45,0,0,0,171.37,138.15Z"></path><path class="cls-3" d="M179.19,143l-1,0-.53-1.59-2.89.09-.43,1.62-1,0,2.08-7.43,1.3,0Zm-1.86-2.44-1.29-3.9-1,4Z"></path><path class="cls-3" d="M184.71,142.76l-4,.2-.36-7.35,1-.05.32,6.5,3-.15Z"></path><path class="cls-3" d="M191.6,142.32l-1,.06-.59-1.56-2.88.19-.38,1.63-1,.07,1.81-7.5,1.29-.08Zm-1.95-2.38-1.43-3.85-.91,4Z"></path><path class="cls-3" d="M196.86,135.35l-2.05.17.54,6.48-.95.08-.54-6.48-2.05.18-.07-.86,5-.42Z"></path><path class="cls-3" d="M204,141.18l-1,.1-.64-1.55-2.87.29-.33,1.65-1,.09,1.56-7.55,1.28-.13Zm-2-2.31-1.55-3.8-.78,4Z"></path><path class="cls-3" d="M209.42,138.34a2.1,2.1,0,0,1-.09.95,1.84,1.84,0,0,1-.47.75,2.38,2.38,0,0,1-.81.53,4.32,4.32,0,0,1-1.1.27l-1.8.21-.85-7.31,2-.23c1.54-.17,2.38.33,2.51,1.52a1.78,1.78,0,0,1-.15,1,1.59,1.59,0,0,1-.79.74,1.77,1.77,0,0,1,.55.13,1.47,1.47,0,0,1,.48.29,1.72,1.72,0,0,1,.36.47A1.78,1.78,0,0,1,209.42,138.34Zm-1.6-3.07a1.13,1.13,0,0,0-.11-.41.8.8,0,0,0-.26-.32,1.32,1.32,0,0,0-.45-.18,2.64,2.64,0,0,0-.69,0l-1,.11.26,2.29.94-.11a1.91,1.91,0,0,0,.57-.14,1.28,1.28,0,0,0,.43-.28,1,1,0,0,0,.24-.41A1.21,1.21,0,0,0,207.82,135.27Zm.6,3.22a1.09,1.09,0,0,0-.16-.49,1.2,1.2,0,0,0-.37-.34,1.43,1.43,0,0,0-.54-.18,2.65,2.65,0,0,0-.69,0l-1,.11.29,2.51,1-.11a1.89,1.89,0,0,0,1.16-.46A1.18,1.18,0,0,0,208.42,138.49Z"></path><path class="cls-3" d="M215.66,139.76l-3.95.51-1-7.29,1-.13.84,6.45,3-.39Z"></path><path class="cls-3" d="M221.61,138.91l-3.9.57-1.05-7.29,3.9-.56.12.84-3,.43.33,2.25,2.85-.41.12.84-2.85.41.36,2.51,3-.43Z"></path><path class="cls-3" d="M234.26,136.86l-1.21.21-2.77-4.18-.82-1.36.63,3.66.39,2.32-.87.15-1.23-7.26,1.19-.2,2.63,4,1,1.54-.66-3.88-.35-2.06.86-.15Z"></path><path class="cls-3" d="M240,133.22a3.83,3.83,0,0,1,0,1.11,2.4,2.4,0,0,1-.32.91,2,2,0,0,1-.66.67,2.76,2.76,0,0,1-1,.37,3,3,0,0,1-1.11,0,1.87,1.87,0,0,1-.82-.37,2.17,2.17,0,0,1-.55-.7,4,4,0,0,1-.31-1l-.89-4.87.93-.17.88,4.79a3.27,3.27,0,0,0,.21.74,1.48,1.48,0,0,0,.34.49,1.15,1.15,0,0,0,.51.24,1.79,1.79,0,0,0,.69,0,1.32,1.32,0,0,0,1-.65,2.1,2.1,0,0,0,.12-1.35l-.88-4.78.93-.17Z"></path><path class="cls-3" d="M245.4,128.15l-2,.39,1.25,6.39-.93.18-1.25-6.38-2,.39-.16-.84,5-1Z"></path><path class="cls-3" d="M252.8,133.26l-1,.21-1.49-2.09a3.68,3.68,0,0,0-.33-.39,1.19,1.19,0,0,0-.31-.22,1,1,0,0,0-.34-.09,1.67,1.67,0,0,0-.37,0l-.44.09.67,3.2-.92.2-1.5-7.21,1.82-.37a3.22,3.22,0,0,1,1-.08,2.11,2.11,0,0,1,.78.24,1.55,1.55,0,0,1,.53.52,2.09,2.09,0,0,1,.28.75,2.05,2.05,0,0,1,0,.65,1.84,1.84,0,0,1-.16.61,1.79,1.79,0,0,1-.37.51,2.16,2.16,0,0,1-.57.4,1.09,1.09,0,0,1,.56.27,3.42,3.42,0,0,1,.55.61Zm-2.56-4.92a1.1,1.1,0,0,0-.53-.8,1.45,1.45,0,0,0-1-.08l-.88.18.5,2.38.75-.16a1.82,1.82,0,0,0,.57-.2,1.31,1.31,0,0,0,.4-.33,1,1,0,0,0,.2-.44A1.27,1.27,0,0,0,250.24,128.34Z"></path><path class="cls-3" d="M254.49,126.22l-1.56.35-.18-.83,4.06-.89.18.83-1.56.34,1.21,5.52,1.56-.34.19.84-4.06.89-.18-.84,1.56-.34Z"></path><path class="cls-3" d="M263.46,124.2l-2,.46,1.47,6.34-.93.21-1.46-6.33-2,.46-.19-.83,4.93-1.14Z"></path><path class="cls-3" d="M266.52,123.45l-1.55.38-.2-.82,4-1,.2.82-1.55.38,1.33,5.5,1.56-.38.2.83-4,1-.21-.83,1.56-.38Z"></path><path class="cls-3" d="M276.25,123.88a6.12,6.12,0,0,1,.21,1.71,3.51,3.51,0,0,1-.29,1.3,2.27,2.27,0,0,1-.67.9,2.52,2.52,0,0,1-1,.48,2.55,2.55,0,0,1-1.19,0,2.15,2.15,0,0,1-1-.51,3.33,3.33,0,0,1-.76-1,7.05,7.05,0,0,1-.55-1.48,6,6,0,0,1-.21-1.7,3.83,3.83,0,0,1,.28-1.3,2.43,2.43,0,0,1,1.64-1.37,2.59,2.59,0,0,1,1.2,0,2.28,2.28,0,0,1,1,.52,3.39,3.39,0,0,1,.76,1A7.17,7.17,0,0,1,276.25,123.88Zm-.94.32a6.23,6.23,0,0,0-.38-1.13,3,3,0,0,0-.52-.82,1.53,1.53,0,0,0-.67-.45,1.38,1.38,0,0,0-.81,0,1.33,1.33,0,0,0-.69.41,1.79,1.79,0,0,0-.36.73,3.34,3.34,0,0,0-.07,1A5.57,5.57,0,0,0,272,125a7.09,7.09,0,0,0,.39,1.13,3.12,3.12,0,0,0,.52.82,1.62,1.62,0,0,0,.66.45,1.39,1.39,0,0,0,.81,0,1.28,1.28,0,0,0,.68-.41,1.63,1.63,0,0,0,.37-.73,3.29,3.29,0,0,0,.07-1A5.57,5.57,0,0,0,275.31,124.2Z"></path><path class="cls-3" d="M282.27,123.48a3.63,3.63,0,0,1,.12,1.11,2.37,2.37,0,0,1-.24.93,2,2,0,0,1-.6.71,2.67,2.67,0,0,1-1,.45,2.79,2.79,0,0,1-1.11.11,1.7,1.7,0,0,1-.84-.3,2,2,0,0,1-.6-.65,3.4,3.4,0,0,1-.39-1l-1.28-4.78.91-.24,1.26,4.7a3,3,0,0,0,.27.72,1.34,1.34,0,0,0,.38.46,1.07,1.07,0,0,0,.53.2,1.64,1.64,0,0,0,.68-.06,1.32,1.32,0,0,0,1-.74,2.12,2.12,0,0,0,0-1.35l-1.26-4.69.92-.24Z"></path><path class="cls-3" d="M288.28,122.4a2,2,0,0,1,.05.93,2,2,0,0,1-.36.79,2.79,2.79,0,0,1-.73.61,4.91,4.91,0,0,1-1,.42,5.29,5.29,0,0,1-.54.13l-.52.09-.48,0-.41,0-.26-.93a5.71,5.71,0,0,0,.92,0,5.57,5.57,0,0,0,1.11-.22,3,3,0,0,0,.73-.28,1.69,1.69,0,0,0,.45-.36.86.86,0,0,0,.18-.43,1,1,0,0,0,0-.49.79.79,0,0,0-.29-.45,1.51,1.51,0,0,0-.49-.25,3.11,3.11,0,0,0-.65-.14l-.71-.09-.73-.13a2.94,2.94,0,0,1-.67-.23,1.87,1.87,0,0,1-.54-.42,1.63,1.63,0,0,1-.36-.68,1.92,1.92,0,0,1,0-.76,1.65,1.65,0,0,1,.26-.75,2.36,2.36,0,0,1,.65-.65,3.37,3.37,0,0,1,1.08-.49l.37-.09.42-.06.41,0,.39,0,.24.87a7.56,7.56,0,0,0-.83,0,4.5,4.5,0,0,0-.78.15,2,2,0,0,0-1.07.6.9.9,0,0,0-.16.85.87.87,0,0,0,.28.45,1.82,1.82,0,0,0,.5.26,3.93,3.93,0,0,0,.65.13l.71.1a5.86,5.86,0,0,1,.73.13,2.43,2.43,0,0,1,.67.24,1.91,1.91,0,0,1,.55.43A1.61,1.61,0,0,1,288.28,122.4Z"></path></g></g></svg>